<?xml version="1.0" encoding="utf-8"?>
<!-- Generator: Adobe Illustrator 27.5.0, SVG Export Plug-In . SVG Version: 6.00 Build 0)  -->
<svg version="1.1" id="Capa_1" xmlns="http://www.w3.org/2000/svg" xmlns:xlink="http://www.w3.org/1999/xlink" x="0px" y="0px"
	 viewBox="0 0 425.196 370.242" style="enable-background:new 0 0 425.196 370.242;" xml:space="preserve">
<rect style="fill:#FFFFFF;" width="425.196" height="370.242"/>
<g>
	<g>
		<path style="fill:#999B9E;" d="M33.051,195.865c0,0,1.861-10.713,10.33-11.68l49.504,17.586c0,0,149.301-80.369,149.301-80.37
			l4.857-2.811c0,0,4.855-1.824,4.855,7.066l-0.678,50.239l3.225,1.138c0,0,7.15,3.327-8.949,11.223
			c0,0-156.18,91.705-156.182,91.707c-17.621,10.732-41.183,1.969-58.125-6.251c-13.348-4.359-8.859-8.326-8.859-8.326l9.215-2.795
			L33.051,195.865z"/>
		<g>
			<g>
				<path style="fill:#7DB238;" d="M251.916,171.523v-50.131c0-8.743-4.775-6.95-4.775-6.95l-4.777,2.765v0.002L95.516,196.255
					c0,0-8.67,2.607-9.439,16.629l-5.359,60.873c0,0-1.072,6.934,11.289-0.597l153.613-90.197
					C253.525,178.958,251.916,171.523,251.916,171.523z"/>
				<g>
					
						<line style="fill:none;stroke:#A7A9AC;stroke-width:0.4623;stroke-linejoin:round;stroke-miterlimit:10;" x1="82.584" y1="259.44" x2="251.916" y2="162.226"/>
					
						<line style="fill:none;stroke:#A7A9AC;stroke-width:0.4623;stroke-linejoin:round;stroke-miterlimit:10;" x1="109.217" y1="232.403" x2="109.217" y2="263.039"/>
					
						<line style="fill:none;stroke:#A7A9AC;stroke-width:0.4623;stroke-linejoin:round;stroke-miterlimit:10;" x1="128.791" y1="220.988" x2="128.791" y2="251.624"/>
					
						<line style="fill:none;stroke:#A7A9AC;stroke-width:0.4623;stroke-linejoin:round;stroke-miterlimit:10;" x1="150.35" y1="208.461" x2="150.35" y2="239.096"/>
					
						<line style="fill:none;stroke:#A7A9AC;stroke-width:0.4623;stroke-linejoin:round;stroke-miterlimit:10;" x1="174.322" y1="194.223" x2="174.322" y2="224.857"/>
					
						<line style="fill:none;stroke:#A7A9AC;stroke-width:0.4623;stroke-linejoin:round;stroke-miterlimit:10;" x1="196.742" y1="181.157" x2="196.742" y2="211.793"/>
				</g>
				<path style="fill:#0B0D10;" d="M118.457,269.131l-8.596-2.296c0,0-1.525-0.745-1.988-2.197
					c-1.154-4.951-2.025-7.487,0.059-12.727c3.119-7.841,9.82-12.536,14.969-10.489c5.148,2.048,6.793,10.064,3.674,17.904
					C124.635,264.197,121.928,267.551,118.457,269.131"/>
				<path style="fill:#0B0D10;" d="M224.549,206.568l-8.596-2.296c0,0-1.523-0.746-1.986-2.197
					c-1.156-4.951-2.025-7.488,0.059-12.727c3.119-7.842,9.82-12.538,14.967-10.49c5.148,2.048,6.793,10.064,3.674,17.904
					C230.729,201.634,228.021,204.987,224.549,206.568"/>
				<path style="fill:#0B0D10;" d="M196.748,223.273l-8.596-2.297c0,0-1.523-0.746-1.986-2.197
					c-1.156-4.951-2.027-7.487,0.059-12.727c3.117-7.841,9.82-12.537,14.967-10.489c5.148,2.047,6.793,10.064,3.674,17.904
					C202.928,218.338,200.221,221.691,196.748,223.273"/>
				<path style="fill:#FFFFFF;" d="M243.496,174.485c-0.051-9.695-11.002-6.363-11.002-6.363l-35.752,19.658
					c-14.244,7.517-13.563,25.773-13.563,25.773l-44.258,25.542c-3.133-14.406-18.76-6.692-18.76-6.692
					c-13.67,6.708-16.354,20.335-16.354,20.335l-22.271,11.688l-0.82,9.33c0,0-1.072,6.934,11.289-0.597l153.613-90.197
					c7.906-4.005,6.297-11.44,6.297-11.44v-1.411L243.496,174.485z"/>
				<path style="fill:#7DB238;" d="M39.055,267.089c0,0,28.1,15.605,44.125,9.747l12.336-80.581l-48.689-17.297
					c-8.33,0.951-10.16,11.487-10.16,11.487s-9.572,36.307-5.258,64.042C31.408,254.487,30.291,263.425,39.055,267.089z"/>
				<path style="fill:#FFFFFF;" d="M35.49,252.014c-2.006-0.838-3.555-1.918-4.76-3.108c0.17,1.89,0.392,3.755,0.678,5.582
					c0,0-1.117,8.938,7.646,12.602c0,0,28.1,15.605,44.125,9.747l2.033-13.284C66.65,269.317,35.49,252.014,35.49,252.014z"/>
				<g>
					<path style="fill:#17191B;" d="M42.021,190.638l-13.639,3.817c0,0-8.703,1.849-8.629,13.581h4.547c0,0,0.248-7.418,6.672-8.698
						l9.221-1.416L42.021,190.638z"/>
					<polygon style="fill:#25282A;" points="25.174,222.926 17.189,220.747 17.189,205.648 25.174,207.825 					"/>
					<polygon style="fill:#030406;" points="25.174,207.825 26.02,207.342 26.02,221.673 25.174,222.926 					"/>
					<polygon style="fill:#3A3D40;" points="17.189,205.648 18.314,205.339 26.02,207.342 25.174,207.825 					"/>
				</g>
				<path style="fill:none;stroke:#A7A9AC;stroke-width:1.3262;stroke-linejoin:round;stroke-miterlimit:10;" d="M82.564,248.17
					l0.02,11.27c-21.717,4.006-52.086-13.248-52.086-13.248"/>
				<polygon style="fill:#383B3E;" points="208.465,101.425 245.445,115.536 90.887,198.708 43.273,180.333 				"/>
				
					<line style="fill:none;stroke:#A7A9AC;stroke-width:1.3262;stroke-linejoin:round;stroke-miterlimit:10;" x1="82.564" y1="248.17" x2="251.916" y2="150.559"/>
				<path style="fill:none;stroke:#A7A9AC;stroke-width:1.3262;stroke-linejoin:round;stroke-miterlimit:10;" d="M35.289,239.964
					c0,0-1.262,4.277,2.438,6.511c0,0,14.213,7.165,28.543,9.322c0,0,3.814-0.81,2.471-4.855L35.289,239.964z"/>
				<path style="fill:#25282A;" d="M46.826,178.958c-8.639,0.16-11.104,11.487-11.104,11.487s-6.025,23.479-5.445,47.67
					c0,0,27.508,14.662,46.254,14.207c6.033,0.136,6.65-3.382,6.65-3.382c0.27-24.654,3.604-41.159,3.604-41.159
					c1.904-10.921,8.73-11.526,8.73-11.526S50.379,184.634,46.826,178.958z"/>
				<path style="fill:#7AD0E2;" d="M80.016,244.77c0,0-0.207,3.949-6.232,3.044c-1.016-0.152-25.885-4.169-43.545-15.419
					c-0.654-20.375,5.484-41.892,5.484-41.892s1.258-3.795,4.416-2.284c18.029,8.63,38.209,11.568,38.209,11.568
					s5.559,0.51,4.572,8.446C82.92,208.233,80.693,220.742,80.016,244.77z"/>
				<path style="fill:#7AD0E2;" d="M74.105,235.197c-2.49,1.079-5.035,1.448-7.736,1.493c-6.369,0.104-13.131-0.919-19.057-3.313
					c-4.771-1.928-9.297-4.667-12.369-8.893c-1.637-2.25-2.813-4.813-3.953-7.34c-0.043-0.094-0.088-0.19-0.131-0.287
					c-0.508,4.999-0.789,10.305-0.621,15.536c17.66,11.25,42.529,15.267,43.545,15.419c6.025,0.905,6.232-3.044,6.232-3.044
					c0.152-5.358,0.381-10.139,0.643-14.341C78.824,232.42,76.6,234.118,74.105,235.197z"/>
				<path style="fill:#25282A;" d="M47.822,247.602c-0.164,0.449-0.664,0.68-1.113,0.515l-4.121-1.518
					c-0.449-0.166-0.68-0.663-0.514-1.112l0,0c0.166-0.449,0.664-0.68,1.113-0.514l4.121,1.517
					C47.758,246.654,47.988,247.152,47.822,247.602L47.822,247.602z"/>
				<path style="fill:#25282A;" d="M58.65,251.352c-0.144,0.456-0.633,0.71-1.088,0.564l-4.186-1.332
					c-0.455-0.145-0.709-0.632-0.563-1.089l0,0c0.145-0.456,0.633-0.708,1.088-0.564l4.186,1.332
					C58.543,250.409,58.795,250.895,58.65,251.352L58.65,251.352z"/>
				<g>
					<path style="fill:#25282A;" d="M31.389,256.299l8.592,3.571c0,0,2.102-5.958-9.209-10.385c0,0-0.807,0.235,0.607,6.645"/>
					<g>
						<path style="fill:#D1D3D4;" d="M36.488,254.423c0,1.128-0.914,2.043-2.043,2.043c-1.127,0-2.043-0.915-2.043-2.043
							c0-1.129,0.916-2.043,2.043-2.043C35.574,252.38,36.488,253.294,36.488,254.423z"/>
						<path style="fill:#FFFFFF;" d="M34.795,254.507c0.391,0.356,0.859,0.449,1.256,0.292c0.092-0.198,0.145-0.419,0.145-0.652
							c0-0.834-0.66-1.511-1.486-1.54C34.293,253.173,34.236,253.994,34.795,254.507z"/>
						<path style="fill:#BCBEC0;" d="M34.355,254.982c-0.637-0.765-0.65-1.796-0.168-2.585c-1.006,0.127-1.785,0.984-1.785,2.025
							c0,1.128,0.916,2.043,2.043,2.043c0.688,0,1.293-0.34,1.664-0.859C35.502,255.744,34.836,255.561,34.355,254.982z"/>
					</g>
					<g>
						<path style="fill:#D1D3D4;" d="M38.748,256.592c0,0.763-0.617,1.382-1.381,1.382c-0.762,0-1.381-0.619-1.381-1.382
							c0-0.764,0.619-1.383,1.381-1.383C38.131,255.209,38.748,255.828,38.748,256.592z"/>
						<path style="fill:#FFFFFF;" d="M37.604,256.647c0.264,0.242,0.58,0.306,0.848,0.197c0.063-0.133,0.1-0.282,0.1-0.439
							c0-0.564-0.447-1.023-1.006-1.042C37.264,255.746,37.225,256.302,37.604,256.647z"/>
						<path style="fill:#BCBEC0;" d="M37.307,256.97c-0.432-0.518-0.439-1.214-0.113-1.747c-0.682,0.085-1.207,0.665-1.207,1.369
							c0,0.763,0.619,1.382,1.381,1.382c0.465,0,0.875-0.23,1.125-0.581C38.082,257.485,37.631,257.36,37.307,256.97z"/>
					</g>
					<path style="fill:#FBB040;" d="M33.229,252.002c0,0.591-0.479,1.069-1.07,1.069c-0.59,0-1.068-0.479-1.068-1.069
						s0.479-1.069,1.068-1.069C32.75,250.933,33.229,251.411,33.229,252.002z"/>
				</g>
				<g>
					<path style="fill:#25282A;" d="M81.066,264.729v6.322l-13.459-2.968C67.607,268.084,68.283,261.478,81.066,264.729z"/>
					<g>
						<path style="fill:#D1D3D4;" d="M74.137,265.485c-0.713,0.996-0.484,2.382,0.51,3.097c0.996,0.714,2.383,0.485,3.098-0.511
							c0.713-0.995,0.484-2.382-0.51-3.096C76.238,264.262,74.852,264.49,74.137,265.485z"/>
						<path style="fill:#FFFFFF;" d="M75.58,266.632c-0.572,0.068-1.043-0.146-1.293-0.536c0.043-0.233,0.137-0.462,0.283-0.667
							c0.527-0.736,1.541-0.916,2.287-0.419C76.867,265.772,76.396,266.534,75.58,266.632z"/>
						<path style="fill:#BCBEC0;" d="M75.666,267.331c1.047-0.272,1.709-1.175,1.785-2.176c0.807,0.749,0.951,1.998,0.293,2.916
							c-0.715,0.996-2.102,1.225-3.098,0.511c-0.605-0.435-0.924-1.118-0.924-1.812C74.172,267.276,74.877,267.536,75.666,267.331z"
							/>
					</g>
					<g>
						<path style="fill:#D1D3D4;" d="M70.77,265.97c-0.482,0.674-0.328,1.61,0.346,2.094c0.674,0.483,1.611,0.329,2.094-0.345
							s0.328-1.611-0.344-2.095C72.191,265.142,71.254,265.296,70.77,265.97z"/>
						<path style="fill:#FFFFFF;" d="M71.746,266.745c-0.387,0.046-0.705-0.098-0.875-0.363c0.029-0.158,0.092-0.312,0.191-0.451
							c0.357-0.497,1.041-0.619,1.549-0.283C72.615,266.164,72.299,266.679,71.746,266.745z"/>
						<path style="fill:#BCBEC0;" d="M71.805,267.218c0.707-0.185,1.156-0.794,1.207-1.473c0.545,0.508,0.643,1.353,0.197,1.974
							c-0.482,0.674-1.42,0.828-2.094,0.345c-0.41-0.293-0.627-0.756-0.625-1.225C70.793,267.181,71.27,267.357,71.805,267.218z"/>
					</g>
					<path style="fill:#FBB040;" d="M78.547,265.414c-0.373,0.521-0.254,1.245,0.268,1.619c0.521,0.373,1.246,0.255,1.619-0.267
						c0.375-0.522,0.256-1.247-0.266-1.621C79.646,264.772,78.922,264.892,78.547,265.414z"/>
				</g>
				<g>
					<path style="fill:#A7A9AC;" d="M43.348,258.743c8.049,3.924,13.963,5.586,16.293,6.149v9.45
						c-6.252-1.577-13.951-5.345-16.293-6.53V258.743 M42.021,256.598v12.025c0,0,11.074,5.838,18.945,7.377v-12.17
						C60.967,263.83,53.328,262.384,42.021,256.598L42.021,256.598z"/>
				</g>
				<g>
					<path style="fill:#BCBEC0;" d="M43.809,259.951v1.156c0,0,4.279,3.1,15.371,5.586v-1.156
						C59.18,265.537,51.051,263.88,43.809,259.951z"/>
					<path style="fill:#BCBEC0;" d="M43.809,261.964v1.156c0,0,4.568,3.025,15.371,5.585v-1.156
						C59.18,267.549,51.051,265.893,43.809,261.964z"/>
					<path style="fill:#BCBEC0;" d="M43.809,263.976v1.156c0,0,4.279,3.1,15.371,5.586v-1.156
						C59.18,269.562,51.051,267.905,43.809,263.976z"/>
					<path style="fill:#BCBEC0;" d="M43.809,265.988v1.156c0,0,4.973,3.016,15.371,5.585v-1.155
						C59.18,271.574,51.051,269.917,43.809,265.988z"/>
				</g>
				<g>
					<path style="fill:#25282A;" d="M94.33,205.062l-13.637,3.816c0,0-8.703,1.849-8.631,13.58h4.549c0,0,0.248-7.417,6.67-8.698
						l9.223-1.415L94.33,205.062z"/>
					<polygon style="fill:#25282A;" points="77.484,237.349 69.5,235.17 69.5,220.069 77.484,222.248 					"/>
					<polygon style="fill:#030406;" points="77.484,222.248 78.33,221.765 78.33,236.096 77.484,237.349 					"/>
					<polygon style="fill:#3A3D40;" points="69.5,220.069 70.625,219.762 78.33,221.765 77.484,222.248 					"/>
				</g>
				<path style="fill:#0B0D10;" d="M110.174,263.321c0,0-3.109-17.129,10.225-24.226c0,0,12.705-8.321,14.94,8.582L110.174,263.321z
					"/>
				<path style="fill:#0B0D10;" d="M188.469,217.463c0,0-3.111-17.13,10.223-24.226c0,0,12.705-8.321,14.939,8.58L188.469,217.463z"
					/>
				<path style="fill:#0B0D10;" d="M216.268,200.76c0,0-3.109-17.13,10.225-24.226c0,0,12.705-8.322,14.939,8.58L216.268,200.76z"/>
				<g>
					<path style="fill:#25282A;" d="M76.771,173.552l24.689,9.411c0,0,9.047-10.498,29.385-17.642l-25.572-8.23
						C105.273,157.092,95.777,157.939,76.771,173.552z"/>
					<path d="M101.461,182.963l29.385-15.029v-2.612C130.846,165.321,109.508,172.667,101.461,182.963z"/>
				</g>
				<g>
					<path style="fill:#25282A;" d="M159.557,131.995l24.689,9.412c0,0,9.045-10.499,29.385-17.642l-25.572-8.229
						C188.059,115.536,178.563,116.384,159.557,131.995z"/>
					<path d="M184.246,141.407l29.385-15.029v-2.612C213.631,123.766,192.293,131.11,184.246,141.407z"/>
				</g>
				<path style="fill:#383B3E;" d="M208.465,101.425c0,0,3.66-2.991,7.473-1.489l32.756,14.354c0,0-0.615-0.179-3.248,1.247
					L208.465,101.425z"/>
				<path style="fill:#373A3D;" d="M132.623,258.385c-3.119,7.841-9.818,12.537-14.967,10.489
					c-5.148-2.047-6.793-10.064-3.674-17.904c3.119-7.841,9.818-12.537,14.967-10.489
					C134.098,242.528,135.742,250.545,132.623,258.385z"/>
				<g>
					<path style="fill:#0B0D10;" d="M128.176,256.975c-1.631,4.099-5.133,6.554-7.824,5.483c-2.691-1.07-3.553-5.262-1.922-9.359
						c1.631-4.1,5.133-6.555,7.824-5.483C128.945,248.686,129.807,252.876,128.176,256.975z"/>
					<path style="fill:#D1D3D4;" d="M127.885,256.079c-1.441,3.624-4.537,5.794-6.916,4.849c-2.381-0.946-3.141-4.651-1.699-8.275
						c1.441-3.623,4.539-5.793,6.918-4.847C128.566,248.752,129.326,252.456,127.885,256.079z"/>
					<path style="fill:#D1D3D4;" d="M127.885,256.079c-1.441,3.624-4.537,5.794-6.916,4.849c-2.381-0.946-3.141-4.651-1.699-8.275
						c1.441-3.623,4.539-5.793,6.918-4.847C128.566,248.752,129.326,252.456,127.885,256.079z"/>
					<path style="fill:#808285;" d="M126.336,255.296c-0.963,2.424-2.949,3.909-4.434,3.319c-1.484-0.591-1.908-3.035-0.943-5.457
						c0.963-2.424,2.949-3.909,4.434-3.319C126.877,250.431,127.301,252.873,126.336,255.296z"/>
					<g>
						<path style="fill:#D1D3D4;" d="M124.07,248.875c0,0.273-0.221,0.494-0.492,0.494c-0.273,0-0.494-0.221-0.494-0.494
							c0-0.271,0.221-0.492,0.494-0.492C123.85,248.383,124.07,248.604,124.07,248.875z"/>
						<path style="fill:#FFFFFF;" d="M123.662,248.896c0.094,0.086,0.207,0.108,0.303,0.069c0.021-0.048,0.035-0.101,0.035-0.156
							c0-0.201-0.16-0.365-0.359-0.373C123.541,248.574,123.527,248.773,123.662,248.896z"/>
						<path style="fill:#BCBEC0;" d="M123.555,249.01c-0.152-0.184-0.156-0.433-0.039-0.623c-0.244,0.03-0.432,0.237-0.432,0.488
							c0,0.273,0.221,0.494,0.494,0.494c0.164,0,0.311-0.082,0.4-0.208C123.832,249.195,123.672,249.15,123.555,249.01z"/>
					</g>
					<g>
						<path style="fill:#D1D3D4;" d="M126.402,248.711c0,0.272-0.221,0.494-0.494,0.494s-0.494-0.222-0.494-0.494
							c0-0.272,0.221-0.493,0.494-0.493S126.402,248.439,126.402,248.711z"/>
						<path style="fill:#FFFFFF;" d="M125.994,248.73c0.094,0.087,0.205,0.109,0.303,0.071c0.021-0.048,0.033-0.102,0.033-0.157
							c0-0.201-0.158-0.365-0.357-0.372C125.871,248.409,125.857,248.607,125.994,248.73z"/>
						<path style="fill:#BCBEC0;" d="M125.887,248.846c-0.154-0.185-0.156-0.434-0.041-0.624c-0.242,0.031-0.432,0.238-0.432,0.489
							c0,0.272,0.221,0.494,0.494,0.494c0.166,0,0.313-0.082,0.402-0.208C126.164,249.029,126.004,248.985,125.887,248.846z"/>
					</g>
					<g>
						<path style="fill:#D1D3D4;" d="M127.975,250.616c0,0.273-0.221,0.493-0.494,0.493c-0.271,0-0.494-0.221-0.494-0.493
							c0-0.272,0.223-0.493,0.494-0.493C127.754,250.123,127.975,250.344,127.975,250.616z"/>
						<path style="fill:#FFFFFF;" d="M127.564,250.636c0.094,0.087,0.207,0.109,0.303,0.07c0.023-0.047,0.037-0.1,0.037-0.156
							c0-0.201-0.16-0.365-0.361-0.372C127.443,250.314,127.43,250.513,127.564,250.636z"/>
						<path style="fill:#BCBEC0;" d="M127.459,250.752c-0.154-0.186-0.156-0.434-0.041-0.625c-0.242,0.03-0.432,0.237-0.432,0.489
							c0,0.273,0.223,0.493,0.494,0.493c0.166,0,0.313-0.082,0.402-0.207C127.736,250.936,127.574,250.891,127.459,250.752z"/>
					</g>
					<g>
						<path style="fill:#D1D3D4;" d="M128.23,253.505c0,0.273-0.223,0.493-0.494,0.493s-0.494-0.221-0.494-0.493
							c0-0.271,0.223-0.493,0.494-0.493S128.23,253.233,128.23,253.505z"/>
						<path style="fill:#FFFFFF;" d="M127.822,253.524c0.092,0.087,0.205,0.109,0.301,0.071c0.023-0.048,0.035-0.102,0.035-0.157
							c0-0.201-0.158-0.364-0.357-0.372C127.699,253.203,127.686,253.401,127.822,253.524z"/>
						<path style="fill:#BCBEC0;" d="M127.715,253.64c-0.154-0.185-0.156-0.434-0.041-0.624c-0.244,0.031-0.432,0.238-0.432,0.489
							c0,0.273,0.223,0.493,0.494,0.493c0.166,0,0.313-0.081,0.402-0.208C127.992,253.824,127.832,253.779,127.715,253.64z"/>
					</g>
					<g>
						<path style="fill:#D1D3D4;" d="M127.48,255.845c0,0.272-0.221,0.494-0.494,0.494c-0.271,0-0.492-0.222-0.492-0.494
							c0-0.273,0.221-0.492,0.492-0.492C127.26,255.353,127.48,255.572,127.48,255.845z"/>
						<path style="fill:#FFFFFF;" d="M127.072,255.865c0.094,0.087,0.205,0.109,0.303,0.071c0.021-0.049,0.035-0.102,0.035-0.158
							c0-0.201-0.16-0.364-0.359-0.371C126.951,255.543,126.938,255.741,127.072,255.865z"/>
						<path style="fill:#BCBEC0;" d="M126.965,255.98c-0.152-0.185-0.156-0.434-0.039-0.625c-0.244,0.031-0.432,0.239-0.432,0.489
							c0,0.272,0.221,0.494,0.492,0.494c0.166,0,0.313-0.082,0.402-0.208C127.242,256.164,127.082,256.12,126.965,255.98z"/>
					</g>
					<g>
						<path style="fill:#D1D3D4;" d="M126.244,258.086c0,0.272-0.221,0.493-0.494,0.493c-0.271,0-0.492-0.221-0.492-0.493
							c0-0.272,0.221-0.493,0.492-0.493C126.023,257.593,126.244,257.814,126.244,258.086z"/>
						<path style="fill:#FFFFFF;" d="M125.834,258.107c0.096,0.087,0.207,0.109,0.305,0.07c0.021-0.048,0.033-0.102,0.033-0.157
							c0-0.201-0.158-0.365-0.357-0.372C125.713,257.784,125.699,257.983,125.834,258.107z"/>
						<path style="fill:#BCBEC0;" d="M125.729,258.222c-0.154-0.185-0.156-0.434-0.041-0.625c-0.242,0.031-0.43,0.238-0.43,0.489
							c0,0.272,0.221,0.493,0.492,0.493c0.166,0,0.313-0.082,0.402-0.207C126.006,258.405,125.844,258.361,125.729,258.222z"/>
					</g>
					<g>
						<path style="fill:#D1D3D4;" d="M124.07,259.687c0,0.272-0.221,0.494-0.492,0.494c-0.273,0-0.494-0.222-0.494-0.494
							c0-0.272,0.221-0.493,0.494-0.493C123.85,259.193,124.07,259.415,124.07,259.687z"/>
						<path style="fill:#FFFFFF;" d="M123.662,259.707c0.094,0.086,0.207,0.108,0.303,0.07c0.021-0.048,0.035-0.102,0.035-0.157
							c0-0.201-0.16-0.364-0.359-0.372C123.541,259.384,123.527,259.583,123.662,259.707z"/>
						<path style="fill:#BCBEC0;" d="M123.555,259.821c-0.152-0.184-0.156-0.433-0.039-0.624c-0.244,0.031-0.432,0.238-0.432,0.489
							c0,0.272,0.221,0.494,0.494,0.494c0.164,0,0.311-0.082,0.4-0.208C123.832,260.006,123.672,259.961,123.555,259.821z"/>
					</g>
					<g>
						<path style="fill:#D1D3D4;" d="M121.854,259.852c0,0.273-0.221,0.493-0.492,0.493c-0.273,0-0.494-0.221-0.494-0.493
							c0-0.272,0.221-0.493,0.494-0.493C121.633,259.358,121.854,259.579,121.854,259.852z"/>
						<path style="fill:#FFFFFF;" d="M121.445,259.872c0.094,0.086,0.207,0.108,0.303,0.07c0.023-0.048,0.035-0.102,0.035-0.157
							c0-0.201-0.16-0.365-0.359-0.372C121.324,259.55,121.311,259.748,121.445,259.872z"/>
						<path style="fill:#BCBEC0;" d="M121.338,259.986c-0.152-0.185-0.156-0.433-0.039-0.624c-0.244,0.031-0.432,0.238-0.432,0.489
							c0,0.273,0.221,0.493,0.494,0.493c0.166,0,0.313-0.082,0.4-0.207C121.615,260.171,121.455,260.126,121.338,259.986z"/>
					</g>
					<g>
						<path style="fill:#D1D3D4;" d="M120.254,258.251c0,0.272-0.221,0.492-0.492,0.492c-0.273,0-0.494-0.22-0.494-0.492
							c0-0.273,0.221-0.493,0.494-0.493C120.033,257.758,120.254,257.978,120.254,258.251z"/>
						<path style="fill:#FFFFFF;" d="M119.846,258.271c0.094,0.087,0.207,0.109,0.303,0.071c0.021-0.048,0.035-0.102,0.035-0.158
							c0-0.2-0.16-0.364-0.359-0.371C119.723,257.948,119.711,258.147,119.846,258.271z"/>
						<path style="fill:#BCBEC0;" d="M119.738,258.386c-0.154-0.185-0.156-0.434-0.039-0.624c-0.244,0.03-0.432,0.237-0.432,0.489
							c0,0.272,0.221,0.492,0.494,0.492c0.166,0,0.313-0.081,0.4-0.207C120.016,258.57,119.855,258.525,119.738,258.386z"/>
					</g>
					<g>
						<path style="fill:#D1D3D4;" d="M119.832,255.573c0,0.273-0.223,0.494-0.494,0.494s-0.492-0.221-0.492-0.494
							c0-0.271,0.221-0.493,0.492-0.493S119.832,255.302,119.832,255.573z"/>
						<path style="fill:#FFFFFF;" d="M119.424,255.594c0.094,0.087,0.207,0.108,0.303,0.07c0.021-0.048,0.035-0.101,0.035-0.157
							c0-0.201-0.16-0.365-0.359-0.371C119.301,255.271,119.289,255.471,119.424,255.594z"/>
						<path style="fill:#BCBEC0;" d="M119.316,255.709c-0.152-0.185-0.156-0.434-0.041-0.624c-0.242,0.031-0.43,0.237-0.43,0.488
							c0,0.273,0.221,0.494,0.492,0.494c0.166,0,0.313-0.082,0.402-0.208C119.594,255.893,119.434,255.849,119.316,255.709z"/>
					</g>
					<g>
						<path style="fill:#D1D3D4;" d="M120.545,252.903c0,0.272-0.223,0.493-0.494,0.493c-0.271,0-0.494-0.221-0.494-0.493
							c0-0.272,0.223-0.494,0.494-0.494C120.322,252.409,120.545,252.631,120.545,252.903z"/>
						<path style="fill:#FFFFFF;" d="M120.135,252.923c0.094,0.087,0.207,0.109,0.303,0.07c0.023-0.048,0.035-0.101,0.035-0.157
							c0-0.201-0.16-0.364-0.357-0.371C120.014,252.602,120,252.8,120.135,252.923z"/>
						<path style="fill:#BCBEC0;" d="M120.029,253.038c-0.154-0.185-0.158-0.434-0.041-0.624c-0.244,0.03-0.432,0.238-0.432,0.489
							c0,0.272,0.223,0.493,0.494,0.493c0.166,0,0.313-0.082,0.402-0.207C120.307,253.222,120.145,253.178,120.029,253.038z"/>
					</g>
					<g>
						<path style="fill:#D1D3D4;" d="M121.9,250.508c0,0.273-0.221,0.492-0.494,0.492c-0.271,0-0.494-0.22-0.494-0.492
							c0-0.272,0.223-0.494,0.494-0.494C121.68,250.014,121.9,250.235,121.9,250.508z"/>
						<path style="fill:#FFFFFF;" d="M121.492,250.527c0.094,0.087,0.205,0.108,0.303,0.071c0.021-0.049,0.033-0.102,0.033-0.158
							c0-0.2-0.158-0.365-0.357-0.371C121.369,250.206,121.355,250.404,121.492,250.527z"/>
						<path style="fill:#BCBEC0;" d="M121.385,250.643c-0.154-0.185-0.156-0.434-0.041-0.624c-0.242,0.031-0.432,0.237-0.432,0.489
							c0,0.273,0.223,0.492,0.494,0.492c0.166,0,0.313-0.082,0.4-0.206C121.662,250.826,121.5,250.782,121.385,250.643z"/>
					</g>
					<path style="fill:#E6E7E8;" d="M125.572,254.992c-0.691,1.734-2.111,2.797-3.174,2.375c-1.063-0.423-1.365-2.172-0.676-3.906
						c0.691-1.734,2.111-2.797,3.174-2.375C125.959,251.509,126.262,253.259,125.572,254.992z"/>
				</g>
				<path style="fill:#373A3D;" d="M210.916,212.526c-3.119,7.84-9.82,12.536-14.969,10.488c-5.146-2.047-6.791-10.063-3.672-17.903
					c3.117-7.841,9.818-12.537,14.967-10.489C212.391,196.67,214.035,204.686,210.916,212.526z"/>
				<g>
					<path style="fill:#0B0D10;" d="M206.469,211.115c-1.631,4.1-5.135,6.554-7.826,5.483c-2.691-1.07-3.551-5.262-1.92-9.36
						c1.631-4.099,5.133-6.554,7.824-5.483C207.238,202.826,208.098,207.017,206.469,211.115z"/>
					<path style="fill:#D1D3D4;" d="M206.178,210.221c-1.441,3.623-4.539,5.794-6.916,4.847c-2.381-0.945-3.141-4.65-1.699-8.273
						c1.441-3.623,4.537-5.794,6.916-4.848C206.857,202.894,207.619,206.597,206.178,210.221z"/>
					<path style="fill:#D1D3D4;" d="M206.178,210.221c-1.441,3.623-4.539,5.794-6.916,4.847c-2.381-0.945-3.141-4.65-1.699-8.273
						c1.441-3.623,4.537-5.794,6.916-4.848C206.857,202.894,207.619,206.597,206.178,210.221z"/>
					<path style="fill:#808285;" d="M204.629,209.438c-0.963,2.423-2.949,3.908-4.434,3.317c-1.484-0.59-1.908-3.033-0.943-5.456
						c0.963-2.424,2.949-3.909,4.434-3.318C205.17,204.571,205.592,207.015,204.629,209.438z"/>
					<g>
						<path style="fill:#D1D3D4;" d="M202.363,203.017c0,0.272-0.221,0.492-0.494,0.492c-0.271,0-0.492-0.22-0.492-0.492
							c0-0.272,0.221-0.493,0.492-0.493C202.143,202.523,202.363,202.744,202.363,203.017z"/>
						<path style="fill:#FFFFFF;" d="M201.955,203.036c0.094,0.087,0.205,0.109,0.303,0.07c0.021-0.047,0.035-0.101,0.035-0.157
							c0-0.2-0.16-0.364-0.359-0.371C201.832,202.714,201.82,202.913,201.955,203.036z"/>
						<path style="fill:#BCBEC0;" d="M201.848,203.151c-0.154-0.185-0.156-0.434-0.041-0.624c-0.242,0.03-0.43,0.238-0.43,0.489
							c0,0.272,0.221,0.492,0.492,0.492c0.166,0,0.313-0.08,0.402-0.207C202.125,203.336,201.965,203.291,201.848,203.151z"/>
					</g>
					<g>
						<circle style="fill:#D1D3D4;" cx="204.201" cy="202.852" r="0.493"/>
						<path style="fill:#FFFFFF;" d="M204.285,202.872c0.094,0.087,0.207,0.108,0.303,0.07c0.023-0.048,0.035-0.101,0.035-0.157
							c0-0.201-0.16-0.364-0.357-0.372C204.164,202.55,204.15,202.748,204.285,202.872z"/>
						<path style="fill:#BCBEC0;" d="M204.18,202.987c-0.154-0.185-0.156-0.434-0.041-0.625c-0.244,0.031-0.43,0.238-0.43,0.489
							c0,0.273,0.221,0.493,0.492,0.493c0.166,0,0.313-0.082,0.4-0.208C204.457,203.171,204.295,203.126,204.18,202.987z"/>
					</g>
					<g>
						<path style="fill:#D1D3D4;" d="M206.268,204.757c0,0.272-0.223,0.494-0.494,0.494c-0.273,0-0.494-0.222-0.494-0.494
							c0-0.271,0.221-0.493,0.494-0.493C206.045,204.264,206.268,204.485,206.268,204.757z"/>
						<path style="fill:#FFFFFF;" d="M205.857,204.777c0.094,0.087,0.207,0.108,0.303,0.07c0.021-0.048,0.035-0.101,0.035-0.156
							c0-0.202-0.158-0.366-0.359-0.373C205.736,204.455,205.723,204.653,205.857,204.777z"/>
						<path style="fill:#BCBEC0;" d="M205.75,204.892c-0.152-0.184-0.156-0.433-0.039-0.624c-0.244,0.031-0.432,0.238-0.432,0.489
							c0,0.272,0.221,0.494,0.494,0.494c0.164,0,0.311-0.082,0.4-0.208C206.027,205.075,205.867,205.031,205.75,204.892z"/>
					</g>
					<g>
						<path style="fill:#D1D3D4;" d="M206.521,207.645c0,0.274-0.221,0.493-0.492,0.493c-0.273,0-0.494-0.22-0.494-0.493
							c0-0.272,0.221-0.492,0.494-0.492C206.301,207.153,206.521,207.373,206.521,207.645z"/>
						<path style="fill:#FFFFFF;" d="M206.113,207.666c0.094,0.087,0.207,0.109,0.303,0.07c0.023-0.048,0.035-0.101,0.035-0.157
							c0-0.201-0.158-0.365-0.359-0.372C205.992,207.344,205.979,207.542,206.113,207.666z"/>
						<path style="fill:#BCBEC0;" d="M206.008,207.78c-0.154-0.184-0.158-0.433-0.041-0.624c-0.244,0.031-0.432,0.238-0.432,0.489
							c0,0.274,0.221,0.493,0.494,0.493c0.166,0,0.313-0.081,0.4-0.207C206.283,207.965,206.123,207.921,206.008,207.78z"/>
					</g>
					<g>
						<path style="fill:#D1D3D4;" d="M205.773,209.986c0,0.272-0.221,0.493-0.494,0.493c-0.271,0-0.492-0.221-0.492-0.493
							c0-0.273,0.221-0.493,0.492-0.493C205.553,209.493,205.773,209.714,205.773,209.986z"/>
						<path style="fill:#FFFFFF;" d="M205.363,210.006c0.096,0.087,0.207,0.109,0.305,0.071c0.021-0.049,0.033-0.102,0.033-0.157
							c0-0.201-0.158-0.365-0.357-0.372C205.242,209.685,205.229,209.883,205.363,210.006z"/>
						<path style="fill:#BCBEC0;" d="M205.258,210.121c-0.154-0.184-0.156-0.434-0.041-0.624c-0.242,0.031-0.43,0.237-0.43,0.489
							c0,0.272,0.221,0.493,0.492,0.493c0.166,0,0.313-0.082,0.402-0.208C205.535,210.306,205.373,210.261,205.258,210.121z"/>
					</g>
					<g>
						<path style="fill:#D1D3D4;" d="M204.537,212.227c0,0.273-0.221,0.493-0.494,0.493c-0.273,0-0.492-0.221-0.492-0.493
							c0-0.271,0.219-0.493,0.492-0.493C204.316,211.733,204.537,211.955,204.537,212.227z"/>
						<path style="fill:#FFFFFF;" d="M204.127,212.247c0.094,0.087,0.207,0.108,0.303,0.07c0.023-0.047,0.037-0.102,0.037-0.157
							c0-0.201-0.16-0.364-0.361-0.371C204.006,211.925,203.992,212.123,204.127,212.247z"/>
						<path style="fill:#BCBEC0;" d="M204.02,212.362c-0.152-0.186-0.156-0.434-0.039-0.624c-0.242,0.03-0.43,0.237-0.43,0.488
							c0,0.273,0.219,0.493,0.492,0.493c0.166,0,0.313-0.081,0.402-0.207C204.299,212.546,204.137,212.502,204.02,212.362z"/>
					</g>
					<g>
						<path style="fill:#D1D3D4;" d="M202.363,213.827c0,0.272-0.221,0.493-0.494,0.493c-0.271,0-0.492-0.221-0.492-0.493
							c0-0.272,0.221-0.492,0.492-0.492C202.143,213.335,202.363,213.555,202.363,213.827z"/>
						<path style="fill:#FFFFFF;" d="M201.955,213.848c0.094,0.086,0.205,0.109,0.303,0.071c0.021-0.048,0.035-0.102,0.035-0.158
							c0-0.201-0.16-0.365-0.359-0.371C201.832,213.525,201.82,213.724,201.955,213.848z"/>
						<path style="fill:#BCBEC0;" d="M201.848,213.963c-0.154-0.185-0.156-0.434-0.041-0.624c-0.242,0.03-0.43,0.237-0.43,0.488
							c0,0.272,0.221,0.493,0.492,0.493c0.166,0,0.313-0.081,0.402-0.207C202.125,214.148,201.965,214.103,201.848,213.963z"/>
					</g>
					<g>
						<path style="fill:#D1D3D4;" d="M200.146,213.992c0,0.273-0.221,0.493-0.494,0.493c-0.271,0-0.492-0.22-0.492-0.493
							c0-0.272,0.221-0.493,0.492-0.493C199.926,213.499,200.146,213.72,200.146,213.992z"/>
						<path style="fill:#FFFFFF;" d="M199.736,214.013c0.096,0.086,0.207,0.108,0.305,0.07c0.021-0.048,0.035-0.1,0.035-0.157
							c0-0.201-0.16-0.364-0.359-0.372C199.615,213.691,199.602,213.89,199.736,214.013z"/>
						<path style="fill:#BCBEC0;" d="M199.631,214.128c-0.152-0.185-0.156-0.434-0.039-0.625c-0.244,0.031-0.432,0.238-0.432,0.489
							c0,0.273,0.221,0.493,0.492,0.493c0.166,0,0.313-0.082,0.402-0.207C199.908,214.312,199.746,214.267,199.631,214.128z"/>
					</g>
					<g>
						<path style="fill:#D1D3D4;" d="M198.547,212.392c0,0.272-0.223,0.493-0.494,0.493s-0.492-0.221-0.492-0.493
							c0-0.272,0.221-0.493,0.492-0.493S198.547,212.119,198.547,212.392z"/>
						<path style="fill:#FFFFFF;" d="M198.137,212.411c0.096,0.087,0.207,0.109,0.303,0.071c0.023-0.048,0.037-0.102,0.037-0.157
							c0-0.201-0.16-0.365-0.359-0.372C198.016,212.09,198.004,212.288,198.137,212.411z"/>
						<path style="fill:#BCBEC0;" d="M198.031,212.526c-0.152-0.184-0.156-0.433-0.041-0.624c-0.242,0.031-0.43,0.238-0.43,0.489
							c0,0.272,0.221,0.493,0.492,0.493c0.166,0,0.313-0.082,0.402-0.207C198.309,212.711,198.148,212.666,198.031,212.526z"/>
					</g>
					<g>
						<path style="fill:#D1D3D4;" d="M198.125,209.715c0,0.272-0.221,0.493-0.494,0.493c-0.271,0-0.494-0.221-0.494-0.493
							c0-0.273,0.223-0.493,0.494-0.493C197.904,209.222,198.125,209.442,198.125,209.715z"/>
						<path style="fill:#FFFFFF;" d="M197.715,209.734c0.094,0.087,0.207,0.109,0.305,0.071c0.021-0.049,0.033-0.102,0.033-0.158
							c0-0.2-0.158-0.364-0.359-0.371C197.594,209.413,197.58,209.611,197.715,209.734z"/>
						<path style="fill:#BCBEC0;" d="M197.609,209.85c-0.154-0.184-0.156-0.434-0.041-0.624c-0.242,0.031-0.432,0.237-0.432,0.489
							c0,0.272,0.223,0.493,0.494,0.493c0.166,0,0.313-0.082,0.402-0.207C197.887,210.034,197.725,209.989,197.609,209.85z"/>
					</g>
					<g>
						<path style="fill:#D1D3D4;" d="M198.836,207.044c0,0.272-0.221,0.493-0.492,0.493c-0.273,0-0.494-0.221-0.494-0.493
							c0-0.273,0.221-0.494,0.494-0.494C198.615,206.55,198.836,206.771,198.836,207.044z"/>
						<path style="fill:#FFFFFF;" d="M198.428,207.064c0.094,0.087,0.207,0.109,0.303,0.071c0.021-0.049,0.035-0.102,0.035-0.157
							c0-0.202-0.16-0.365-0.359-0.372C198.307,206.741,198.293,206.941,198.428,207.064z"/>
						<path style="fill:#BCBEC0;" d="M198.322,207.179c-0.154-0.184-0.158-0.434-0.041-0.624c-0.244,0.031-0.432,0.238-0.432,0.489
							c0,0.272,0.221,0.493,0.494,0.493c0.166,0,0.311-0.082,0.402-0.208C198.598,207.363,198.438,207.318,198.322,207.179z"/>
					</g>
					<g>
						<path style="fill:#D1D3D4;" d="M200.191,204.648c0,0.272-0.221,0.493-0.492,0.493c-0.273,0-0.494-0.221-0.494-0.493
							c0-0.272,0.221-0.493,0.494-0.493C199.971,204.155,200.191,204.376,200.191,204.648z"/>
						<path style="fill:#FFFFFF;" d="M199.783,204.669c0.096,0.086,0.207,0.108,0.305,0.07c0.02-0.048,0.033-0.102,0.033-0.157
							c0-0.202-0.16-0.365-0.357-0.372C199.662,204.347,199.648,204.546,199.783,204.669z"/>
						<path style="fill:#BCBEC0;" d="M199.678,204.783c-0.154-0.184-0.158-0.434-0.041-0.624c-0.242,0.031-0.432,0.238-0.432,0.489
							c0,0.272,0.221,0.493,0.494,0.493c0.166,0,0.313-0.082,0.4-0.208C199.953,204.968,199.793,204.923,199.678,204.783z"/>
					</g>
					<path style="fill:#E6E7E8;" d="M203.865,209.134c-0.689,1.734-2.111,2.797-3.174,2.374c-1.063-0.423-1.365-2.171-0.676-3.905
						c0.691-1.734,2.111-2.798,3.174-2.375C204.252,205.65,204.555,207.399,203.865,209.134z"/>
				</g>
				<path style="fill:#373A3D;" d="M238.717,195.822c-3.119,7.841-9.82,12.536-14.969,10.489
					c-5.146-2.048-6.791-10.064-3.674-17.904c3.119-7.841,9.82-12.537,14.969-10.488
					C240.191,179.966,241.836,187.982,238.717,195.822z"/>
				<g>
					<path style="fill:#0B0D10;" d="M234.27,194.411c-1.631,4.1-5.135,6.555-7.824,5.484c-2.693-1.071-3.553-5.262-1.922-9.359
						c1.631-4.101,5.133-6.555,7.824-5.484C235.039,186.123,235.898,190.313,234.27,194.411z"/>
					<path style="fill:#D1D3D4;" d="M233.979,193.518c-1.441,3.623-4.539,5.793-6.918,4.847c-2.379-0.946-3.139-4.65-1.697-8.273
						c1.441-3.624,4.537-5.794,6.916-4.848C234.658,186.189,235.42,189.894,233.979,193.518z"/>
					<path style="fill:#D1D3D4;" d="M233.979,193.518c-1.441,3.623-4.539,5.793-6.918,4.847c-2.379-0.946-3.139-4.65-1.697-8.273
						c1.441-3.624,4.537-5.794,6.916-4.848C234.658,186.189,235.42,189.894,233.979,193.518z"/>
					<path style="fill:#808285;" d="M232.43,192.733c-0.963,2.424-2.949,3.909-4.434,3.318c-1.484-0.591-1.908-3.034-0.943-5.457
						c0.963-2.424,2.949-3.909,4.434-3.317C232.973,187.867,233.393,190.311,232.43,192.733z"/>
					<g>
						<path style="fill:#D1D3D4;" d="M230.164,186.314c0,0.271-0.221,0.492-0.494,0.492c-0.271,0-0.492-0.221-0.492-0.492
							c0-0.273,0.221-0.494,0.492-0.494C229.943,185.819,230.164,186.041,230.164,186.314z"/>
						<path style="fill:#FFFFFF;" d="M229.754,186.333c0.096,0.087,0.209,0.108,0.305,0.07c0.021-0.048,0.035-0.102,0.035-0.157
							c0-0.201-0.16-0.365-0.359-0.371C229.633,186.011,229.621,186.209,229.754,186.333z"/>
						<path style="fill:#BCBEC0;" d="M229.648,186.448c-0.154-0.186-0.156-0.434-0.039-0.624c-0.244,0.03-0.432,0.237-0.432,0.489
							c0,0.271,0.221,0.492,0.492,0.492c0.166,0,0.314-0.081,0.402-0.207C229.926,186.632,229.764,186.588,229.648,186.448z"/>
					</g>
					<g>
						<path style="fill:#D1D3D4;" d="M232.494,186.148c0,0.272-0.221,0.493-0.492,0.493c-0.273,0-0.494-0.221-0.494-0.493
							c0-0.272,0.221-0.493,0.494-0.493C232.273,185.655,232.494,185.876,232.494,186.148z"/>
						<path style="fill:#FFFFFF;" d="M232.086,186.169c0.096,0.086,0.207,0.108,0.303,0.07c0.023-0.049,0.035-0.102,0.035-0.157
							c0-0.201-0.16-0.365-0.359-0.372C231.965,185.847,231.951,186.044,232.086,186.169z"/>
						<path style="fill:#BCBEC0;" d="M231.98,186.283c-0.154-0.185-0.158-0.434-0.041-0.624c-0.242,0.03-0.432,0.237-0.432,0.489
							c0,0.272,0.221,0.493,0.494,0.493c0.166,0,0.313-0.082,0.402-0.209C232.256,186.468,232.096,186.423,231.98,186.283z"/>
					</g>
					<g>
						<path style="fill:#D1D3D4;" d="M234.068,188.054c0,0.271-0.223,0.493-0.494,0.493c-0.273,0-0.494-0.222-0.494-0.493
							c0-0.271,0.221-0.494,0.494-0.494C233.846,187.56,234.068,187.782,234.068,188.054z"/>
						<path style="fill:#FFFFFF;" d="M233.658,188.073c0.094,0.087,0.207,0.109,0.303,0.071c0.023-0.048,0.035-0.103,0.035-0.157
							c0-0.202-0.16-0.365-0.359-0.372C233.537,187.752,233.523,187.95,233.658,188.073z"/>
						<path style="fill:#BCBEC0;" d="M233.553,188.189c-0.154-0.184-0.158-0.434-0.041-0.624c-0.244,0.031-0.432,0.238-0.432,0.489
							c0,0.271,0.221,0.493,0.494,0.493c0.166,0,0.313-0.082,0.402-0.208C233.828,188.372,233.668,188.328,233.553,188.189z"/>
					</g>
					<g>
						<path style="fill:#D1D3D4;" d="M234.322,190.942c0,0.273-0.221,0.493-0.492,0.493c-0.273,0-0.494-0.221-0.494-0.493
							c0-0.272,0.221-0.493,0.494-0.493C234.102,190.449,234.322,190.67,234.322,190.942z"/>
						<path style="fill:#FFFFFF;" d="M233.914,190.962c0.094,0.088,0.207,0.109,0.303,0.071c0.023-0.048,0.035-0.102,0.035-0.157
							c0-0.201-0.16-0.365-0.359-0.372C233.793,190.641,233.779,190.839,233.914,190.962z"/>
						<path style="fill:#BCBEC0;" d="M233.809,191.077c-0.154-0.185-0.158-0.434-0.041-0.624c-0.244,0.03-0.432,0.237-0.432,0.489
							c0,0.273,0.221,0.493,0.494,0.493c0.166,0,0.311-0.082,0.402-0.208C234.086,191.262,233.924,191.217,233.809,191.077z"/>
					</g>
					<g>
						<path style="fill:#D1D3D4;" d="M233.574,193.283c0,0.272-0.221,0.492-0.494,0.492c-0.271,0-0.492-0.22-0.492-0.492
							c0-0.272,0.221-0.494,0.492-0.494C233.354,192.789,233.574,193.011,233.574,193.283z"/>
						<path style="fill:#FFFFFF;" d="M233.164,193.303c0.096,0.087,0.207,0.108,0.305,0.07c0.021-0.048,0.033-0.101,0.033-0.157
							c0-0.2-0.158-0.365-0.359-0.372C233.045,192.982,233.029,193.18,233.164,193.303z"/>
						<path style="fill:#BCBEC0;" d="M233.059,193.418c-0.154-0.185-0.156-0.434-0.041-0.624c-0.242,0.03-0.43,0.237-0.43,0.489
							c0,0.272,0.221,0.492,0.492,0.492c0.166,0,0.313-0.082,0.402-0.207C233.336,193.602,233.174,193.558,233.059,193.418z"/>
					</g>
					<g>
						<path style="fill:#D1D3D4;" d="M232.336,195.523c0,0.273-0.221,0.494-0.492,0.494c-0.273,0-0.494-0.221-0.494-0.494
							c0-0.271,0.221-0.492,0.494-0.492C232.115,195.03,232.336,195.251,232.336,195.523z"/>
						<path style="fill:#FFFFFF;" d="M231.928,195.544c0.094,0.086,0.207,0.108,0.303,0.07c0.023-0.048,0.035-0.102,0.035-0.157
							c0-0.202-0.158-0.366-0.359-0.372C231.807,195.222,231.793,195.419,231.928,195.544z"/>
						<path style="fill:#BCBEC0;" d="M231.822,195.658c-0.154-0.185-0.158-0.433-0.041-0.624c-0.242,0.031-0.432,0.237-0.432,0.488
							c0,0.273,0.221,0.494,0.494,0.494c0.166,0,0.313-0.082,0.4-0.208C232.1,195.842,231.938,195.798,231.822,195.658z"/>
					</g>
					<g>
						<path style="fill:#D1D3D4;" d="M230.164,197.124c0,0.272-0.221,0.492-0.494,0.492c-0.271,0-0.492-0.22-0.492-0.492
							c0-0.273,0.221-0.493,0.492-0.493C229.943,196.631,230.164,196.852,230.164,197.124z"/>
						<path style="fill:#FFFFFF;" d="M229.754,197.144c0.096,0.087,0.209,0.109,0.305,0.071c0.021-0.048,0.035-0.102,0.035-0.157
							c0-0.201-0.16-0.365-0.359-0.372C229.633,196.822,229.621,197.02,229.754,197.144z"/>
						<path style="fill:#BCBEC0;" d="M229.648,197.259c-0.154-0.185-0.156-0.434-0.039-0.624c-0.244,0.031-0.432,0.238-0.432,0.489
							c0,0.272,0.221,0.492,0.492,0.492c0.166,0,0.314-0.082,0.402-0.206C229.926,197.443,229.764,197.398,229.648,197.259z"/>
					</g>
					<g>
						<path style="fill:#D1D3D4;" d="M227.947,197.288c0,0.273-0.221,0.494-0.492,0.494c-0.273,0-0.494-0.221-0.494-0.494
							c0-0.271,0.221-0.492,0.494-0.492C227.727,196.796,227.947,197.017,227.947,197.288z"/>
						<path style="fill:#FFFFFF;" d="M227.539,197.309c0.094,0.087,0.207,0.109,0.303,0.071c0.021-0.049,0.035-0.102,0.035-0.157
							c0-0.201-0.16-0.365-0.359-0.372C227.416,196.987,227.404,197.186,227.539,197.309z"/>
						<path style="fill:#BCBEC0;" d="M227.432,197.424c-0.152-0.185-0.156-0.433-0.039-0.624c-0.244,0.03-0.432,0.237-0.432,0.488
							c0,0.273,0.221,0.494,0.494,0.494c0.164,0,0.311-0.082,0.4-0.208C227.709,197.608,227.549,197.564,227.432,197.424z"/>
					</g>
					<g>
						<path style="fill:#D1D3D4;" d="M226.348,195.688c0,0.273-0.223,0.494-0.494,0.494s-0.492-0.222-0.492-0.494
							c0-0.271,0.221-0.493,0.492-0.493S226.348,195.416,226.348,195.688z"/>
						<path style="fill:#FFFFFF;" d="M225.939,195.708c0.094,0.086,0.207,0.108,0.301,0.07c0.023-0.047,0.035-0.101,0.035-0.156
							c0-0.202-0.158-0.365-0.357-0.373C225.816,195.387,225.803,195.585,225.939,195.708z"/>
						<path style="fill:#BCBEC0;" d="M225.832,195.823c-0.154-0.185-0.156-0.434-0.039-0.624c-0.244,0.03-0.432,0.237-0.432,0.488
							c0,0.273,0.221,0.494,0.492,0.494c0.166,0,0.313-0.082,0.402-0.208C226.109,196.007,225.947,195.963,225.832,195.823z"/>
					</g>
					<g>
						<path style="fill:#D1D3D4;" d="M225.926,193.011c0,0.272-0.223,0.493-0.494,0.493c-0.273,0-0.492-0.221-0.492-0.493
							c0-0.273,0.219-0.493,0.492-0.493C225.703,192.518,225.926,192.738,225.926,193.011z"/>
						<path style="fill:#FFFFFF;" d="M225.516,193.031c0.094,0.087,0.207,0.108,0.303,0.07c0.023-0.048,0.035-0.101,0.035-0.157
							c0-0.201-0.158-0.365-0.357-0.372C225.395,192.709,225.381,192.907,225.516,193.031z"/>
						<path style="fill:#BCBEC0;" d="M225.41,193.146c-0.154-0.186-0.158-0.434-0.041-0.625c-0.242,0.03-0.43,0.238-0.43,0.489
							c0,0.272,0.219,0.493,0.492,0.493c0.166,0,0.313-0.082,0.402-0.207C225.688,193.33,225.525,193.286,225.41,193.146z"/>
					</g>
					<g>
						<path style="fill:#D1D3D4;" d="M226.637,190.341c0,0.271-0.221,0.493-0.492,0.493c-0.273,0-0.494-0.222-0.494-0.493
							c0-0.273,0.221-0.494,0.494-0.494C226.416,189.847,226.637,190.067,226.637,190.341z"/>
						<path style="fill:#FFFFFF;" d="M226.229,190.36c0.094,0.086,0.207,0.108,0.303,0.07c0.021-0.048,0.035-0.102,0.035-0.157
							c0-0.201-0.16-0.365-0.359-0.372C226.107,190.038,226.094,190.237,226.229,190.36z"/>
						<path style="fill:#BCBEC0;" d="M226.121,190.475c-0.152-0.184-0.156-0.433-0.039-0.624c-0.244,0.031-0.432,0.238-0.432,0.49
							c0,0.271,0.221,0.493,0.494,0.493c0.166,0,0.311-0.082,0.4-0.208C226.398,190.659,226.238,190.614,226.121,190.475z"/>
					</g>
					<g>
						<path style="fill:#D1D3D4;" d="M227.992,187.944c0,0.272-0.219,0.494-0.492,0.494c-0.271,0-0.494-0.222-0.494-0.494
							c0-0.272,0.223-0.492,0.494-0.492C227.773,187.452,227.992,187.672,227.992,187.944z"/>
						<path style="fill:#FFFFFF;" d="M227.584,187.965c0.094,0.086,0.207,0.108,0.303,0.07c0.023-0.048,0.035-0.101,0.035-0.157
							c0-0.201-0.158-0.364-0.359-0.372C227.463,187.643,227.449,187.842,227.584,187.965z"/>
						<path style="fill:#BCBEC0;" d="M227.477,188.079c-0.152-0.184-0.156-0.433-0.039-0.623c-0.242,0.03-0.432,0.237-0.432,0.488
							c0,0.272,0.223,0.494,0.494,0.494c0.166,0,0.313-0.082,0.4-0.209C227.756,188.265,227.594,188.219,227.477,188.079z"/>
					</g>
					<path style="fill:#E6E7E8;" d="M231.666,192.43c-0.691,1.734-2.111,2.798-3.174,2.375c-1.064-0.424-1.365-2.172-0.676-3.906
						c0.689-1.733,2.111-2.797,3.174-2.374C232.053,188.946,232.355,190.695,231.666,192.43z"/>
				</g>
				<path style="fill:#25282A;" d="M99.924,200.145l143.275-77.261c0,0,5.699-1.763,5.494,6.168v21.013L90.455,240.941l2.295-26.621
					C92.75,214.32,92.51,202.852,99.924,200.145z"/>
				<path style="fill:#7AD0E2;" d="M101.525,201.989l139.322-74.62c0,0,4.621-1.43,4.455,5.004v17.045L93.846,235.081l1.861-21.594
					C95.707,213.487,95.514,204.185,101.525,201.989z"/>
				<polygon style="fill:#25282A;" points="125.172,219.135 122.785,220.256 122.785,189.901 125.172,188.28 				"/>
				<polygon style="fill:#25282A;" points="199.451,176.915 197.064,178.378 197.064,148.77 199.451,147.927 				"/>
				<polygon style="fill:#25282A;" points="224.223,163.012 221.836,164.475 221.836,134.865 224.223,134.023 				"/>
				<path style="fill:#7AD0E2;" d="M240.848,127.369l-0.281,0.15c1.41,18.875-10.402,23.039-10.402,23.039l-115.623,66.904
					c-12.689,3.731-15.027-5.861-14.773-14.513c-4.209,3.167-4.061,10.537-4.061,10.537l-1.861,21.594l151.457-85.663v-17.045
					C245.469,125.939,240.848,127.369,240.848,127.369z"/>
				<polygon style="fill:#25282A;" points="150.35,173.506 176.875,158.65 176.875,223.494 150.35,239.096 				"/>
				<polygon style="fill:#6B9C30;" points="151.717,174.895 175.51,161.659 175.51,222.53 151.717,236.093 				"/>
				<g>
					<polygon style="fill:#7AD0E2;" points="162.813,171.499 154.107,176.493 154.107,232.169 162.813,227.171 					"/>
					<polygon style="fill:#7AD0E2;" points="164.967,170.264 164.967,225.934 173.584,220.988 173.584,165.321 					"/>
				</g>
				<path style="fill:#7AD0E2;" d="M156.162,175.314l-2.055,1.18v55.676l8.705-4.998v-3.584
					C154.654,225.717,155.633,187.675,156.162,175.314z"/>
				<path style="fill:#7AD0E2;" d="M167.688,168.703l-2.721,1.561v55.67l8.617-4.945v-1.624
					C165.557,219.35,167.258,177.278,167.688,168.703z"/>
			</g>
		</g>
	</g>
	<g>
		<path style="fill:#999B9E;" d="M185.029,208.463c0,0,1.861-10.713,10.33-11.68l49.504,17.586c0,0,149.301-80.369,149.301-80.37
			l4.857-2.811c0,0,4.855-1.824,4.855,7.065l-0.678,50.239l3.225,1.138c0,0,7.15,3.327-8.949,11.223
			c0,0-156.18,91.705-156.182,91.707c-17.621,10.731-41.184,1.969-58.125-6.251c-13.348-4.359-8.859-8.326-8.859-8.326l9.215-2.795
			L185.029,208.463z"/>
		<g>
			<g>
				<path style="fill:#008CB8;" d="M402.363,185.048v-50.131c0-8.743-4.775-6.95-4.775-6.95l-4.777,2.765v0.002L245.963,209.78
					c0,0-8.67,2.607-9.439,16.629l-5.359,60.873c0,0-1.072,6.934,11.289-0.597l153.613-90.197
					C403.973,192.483,402.363,185.048,402.363,185.048z"/>
				<g>
					
						<line style="fill:none;stroke:#A7A9AC;stroke-width:0.4623;stroke-linejoin:round;stroke-miterlimit:10;" x1="233.031" y1="272.966" x2="402.363" y2="175.751"/>
					
						<line style="fill:none;stroke:#A7A9AC;stroke-width:0.4623;stroke-linejoin:round;stroke-miterlimit:10;" x1="259.664" y1="245.929" x2="259.664" y2="276.565"/>
					
						<line style="fill:none;stroke:#A7A9AC;stroke-width:0.4623;stroke-linejoin:round;stroke-miterlimit:10;" x1="279.238" y1="234.514" x2="279.238" y2="265.149"/>
					
						<line style="fill:none;stroke:#A7A9AC;stroke-width:0.4623;stroke-linejoin:round;stroke-miterlimit:10;" x1="300.797" y1="221.986" x2="300.797" y2="252.621"/>
					
						<line style="fill:none;stroke:#A7A9AC;stroke-width:0.4623;stroke-linejoin:round;stroke-miterlimit:10;" x1="324.77" y1="207.748" x2="324.77" y2="238.383"/>
					
						<line style="fill:none;stroke:#A7A9AC;stroke-width:0.4623;stroke-linejoin:round;stroke-miterlimit:10;" x1="347.189" y1="194.683" x2="347.189" y2="225.318"/>
				</g>
				<path style="fill:#0B0D10;" d="M268.904,282.656l-8.596-2.296c0,0-1.525-0.745-1.988-2.197
					c-1.154-4.951-2.025-7.487,0.059-12.727c3.119-7.841,9.82-12.536,14.969-10.489c5.148,2.048,6.793,10.064,3.674,17.904
					C275.082,277.723,272.375,281.076,268.904,282.656"/>
				<path style="fill:#0B0D10;" d="M374.996,220.094l-8.596-2.296c0,0-1.523-0.746-1.986-2.197
					c-1.156-4.951-2.025-7.488,0.059-12.727c3.119-7.842,9.82-12.538,14.967-10.49c5.148,2.048,6.793,10.063,3.674,17.904
					C381.176,215.159,378.469,218.513,374.996,220.094"/>
				<path style="fill:#0B0D10;" d="M347.195,236.798l-8.596-2.297c0,0-1.523-0.746-1.986-2.197
					c-1.156-4.951-2.027-7.487,0.059-12.727c3.117-7.841,9.82-12.537,14.967-10.489c5.148,2.047,6.793,10.063,3.674,17.904
					C353.375,231.863,350.668,235.217,347.195,236.798"/>
				<path style="fill:#FFFFFF;" d="M393.943,188.011c-0.051-9.695-11.002-6.363-11.002-6.363l-35.752,19.658
					c-14.244,7.517-13.563,25.773-13.563,25.773l-44.258,25.542c-3.133-14.406-18.76-6.692-18.76-6.692
					c-13.67,6.708-16.354,20.335-16.354,20.335l-22.271,11.689l-0.82,9.33c0,0-1.072,6.934,11.289-0.597l153.613-90.197
					c7.906-4.005,6.297-11.44,6.297-11.44v-1.411L393.943,188.011z"/>
				<path style="fill:#008CB8;" d="M189.502,280.614c0,0,28.1,15.605,44.125,9.747l12.336-80.581l-48.689-17.297
					c-8.33,0.951-10.16,11.487-10.16,11.487s-9.572,36.307-5.258,64.042C181.855,268.013,180.738,276.95,189.502,280.614z"/>
				<path style="fill:#FFFFFF;" d="M185.938,265.539c-2.006-0.838-3.555-1.918-4.76-3.108c0.17,1.89,0.393,3.755,0.678,5.582
					c0,0-1.117,8.938,7.646,12.602c0,0,28.1,15.605,44.125,9.747l2.033-13.284C217.098,282.843,185.938,265.539,185.938,265.539z"/>
				<g>
					<path style="fill:#17191B;" d="M192.469,204.163l-13.639,3.817c0,0-8.703,1.849-8.629,13.581h4.547
						c0,0,0.248-7.418,6.672-8.698l9.221-1.416L192.469,204.163z"/>
					<polygon style="fill:#25282A;" points="175.621,236.451 167.637,234.273 167.637,219.173 175.621,221.351 					"/>
					<polygon style="fill:#030406;" points="175.621,221.351 176.467,220.867 176.467,235.198 175.621,236.451 					"/>
					<polygon style="fill:#3A3D40;" points="167.637,219.173 168.762,218.864 176.467,220.867 175.621,221.351 					"/>
				</g>
				<path style="fill:none;stroke:#A7A9AC;stroke-width:1.3262;stroke-linejoin:round;stroke-miterlimit:10;" d="M233.012,261.695
					l0.02,11.27c-21.717,4.006-52.086-13.248-52.086-13.248"/>
				<polygon style="fill:#383B3E;" points="358.912,114.95 395.893,129.062 241.334,212.233 193.721,193.858 				"/>
				
					<line style="fill:none;stroke:#A7A9AC;stroke-width:1.3262;stroke-linejoin:round;stroke-miterlimit:10;" x1="233.012" y1="261.695" x2="402.363" y2="164.084"/>
				<path style="fill:none;stroke:#A7A9AC;stroke-width:1.3262;stroke-linejoin:round;stroke-miterlimit:10;" d="M185.736,253.489
					c0,0-1.262,4.277,2.438,6.511c0,0,14.213,7.165,28.543,9.322c0,0,3.814-0.81,2.471-4.854L185.736,253.489z"/>
				<path style="fill:#25282A;" d="M197.273,192.483c-8.639,0.16-11.104,11.487-11.104,11.487s-6.025,23.479-5.445,47.67
					c0,0,27.508,14.662,46.254,14.207c6.033,0.136,6.65-3.382,6.65-3.382c0.27-24.654,3.604-41.159,3.604-41.159
					c1.904-10.921,8.73-11.526,8.73-11.526S200.826,198.159,197.273,192.483z"/>
				<path style="fill:#7AD0E2;" d="M230.463,258.295c0,0-0.207,3.949-6.232,3.044c-1.016-0.152-25.885-4.169-43.545-15.419
					c-0.654-20.375,5.484-41.892,5.484-41.892s1.258-3.795,4.416-2.284c18.029,8.63,38.209,11.568,38.209,11.568
					s5.559,0.51,4.572,8.446C233.367,221.759,231.141,234.268,230.463,258.295z"/>
				<path style="fill:#7AD0E2;" d="M224.553,248.723c-2.49,1.079-5.035,1.448-7.736,1.493c-6.369,0.104-13.131-0.919-19.057-3.313
					c-4.771-1.928-9.297-4.667-12.369-8.893c-1.637-2.25-2.813-4.813-3.953-7.34c-0.043-0.094-0.088-0.19-0.131-0.287
					c-0.508,4.999-0.789,10.305-0.621,15.536c17.66,11.25,42.529,15.267,43.545,15.419c6.025,0.905,6.232-3.044,6.232-3.044
					c0.152-5.358,0.381-10.139,0.643-14.341C229.271,245.945,227.047,247.644,224.553,248.723z"/>
				<path style="fill:#25282A;" d="M198.27,261.127c-0.164,0.449-0.664,0.68-1.113,0.515l-4.121-1.517
					c-0.449-0.166-0.68-0.663-0.514-1.112l0,0c0.166-0.449,0.664-0.68,1.113-0.514l4.121,1.517
					C198.205,260.18,198.436,260.678,198.27,261.127L198.27,261.127z"/>
				<path style="fill:#25282A;" d="M209.098,264.877c-0.145,0.456-0.633,0.71-1.088,0.563l-4.186-1.332
					c-0.455-0.146-0.709-0.632-0.563-1.089l0,0c0.145-0.456,0.633-0.708,1.088-0.564l4.186,1.332
					C208.99,263.935,209.242,264.421,209.098,264.877L209.098,264.877z"/>
				<g>
					<path style="fill:#25282A;" d="M181.836,269.824l8.592,3.571c0,0,2.102-5.958-9.209-10.385c0,0-0.807,0.235,0.607,6.645"/>
					<g>
						<path style="fill:#D1D3D4;" d="M186.936,267.948c0,1.128-0.914,2.043-2.043,2.043c-1.127,0-2.043-0.915-2.043-2.043
							c0-1.129,0.916-2.043,2.043-2.043C186.021,265.905,186.936,266.819,186.936,267.948z"/>
						<path style="fill:#FFFFFF;" d="M185.242,268.032c0.391,0.356,0.859,0.449,1.256,0.292c0.092-0.198,0.145-0.419,0.145-0.652
							c0-0.834-0.66-1.511-1.486-1.54C184.74,266.698,184.684,267.52,185.242,268.032z"/>
						<path style="fill:#BCBEC0;" d="M184.803,268.508c-0.637-0.765-0.65-1.796-0.168-2.585c-1.006,0.127-1.785,0.984-1.785,2.025
							c0,1.128,0.916,2.043,2.043,2.043c0.688,0,1.293-0.34,1.664-0.859C185.949,269.27,185.283,269.086,184.803,268.508z"/>
					</g>
					<g>
						<path style="fill:#D1D3D4;" d="M189.195,270.117c0,0.763-0.617,1.382-1.381,1.382c-0.762,0-1.381-0.619-1.381-1.382
							c0-0.764,0.619-1.383,1.381-1.383C188.578,268.734,189.195,269.353,189.195,270.117z"/>
						<path style="fill:#FFFFFF;" d="M188.051,270.173c0.264,0.242,0.58,0.306,0.848,0.197c0.063-0.133,0.1-0.282,0.1-0.439
							c0-0.564-0.447-1.022-1.006-1.042C187.711,269.272,187.672,269.827,188.051,270.173z"/>
						<path style="fill:#BCBEC0;" d="M187.754,270.495c-0.432-0.517-0.439-1.214-0.113-1.747c-0.682,0.085-1.207,0.665-1.207,1.369
							c0,0.763,0.619,1.382,1.381,1.382c0.465,0,0.875-0.231,1.125-0.581C188.529,271.011,188.078,270.886,187.754,270.495z"/>
					</g>
					<path style="fill:#FBB040;" d="M183.676,265.527c0,0.591-0.479,1.069-1.07,1.069c-0.59,0-1.068-0.479-1.068-1.069
						s0.479-1.069,1.068-1.069C183.197,264.458,183.676,264.937,183.676,265.527z"/>
				</g>
				<g>
					<path style="fill:#25282A;" d="M231.514,278.255v6.322l-13.459-2.968C218.055,281.609,218.73,275.004,231.514,278.255z"/>
					<g>
						<path style="fill:#D1D3D4;" d="M224.584,279.011c-0.713,0.996-0.484,2.382,0.51,3.097c0.996,0.714,2.383,0.485,3.098-0.511
							c0.713-0.995,0.484-2.382-0.51-3.096C226.686,277.787,225.299,278.016,224.584,279.011z"/>
						<path style="fill:#FFFFFF;" d="M226.027,280.157c-0.572,0.068-1.043-0.146-1.293-0.536c0.043-0.233,0.137-0.462,0.283-0.667
							c0.527-0.736,1.541-0.916,2.287-0.419C227.314,279.298,226.844,280.06,226.027,280.157z"/>
						<path style="fill:#BCBEC0;" d="M226.113,280.857c1.047-0.272,1.709-1.175,1.785-2.176c0.807,0.749,0.951,1.998,0.293,2.916
							c-0.715,0.996-2.102,1.225-3.098,0.511c-0.605-0.435-0.924-1.118-0.924-1.812
							C224.619,280.802,225.324,281.062,226.113,280.857z"/>
					</g>
					<g>
						<path style="fill:#D1D3D4;" d="M221.217,279.495c-0.482,0.674-0.328,1.61,0.346,2.094s1.611,0.329,2.094-0.345
							c0.482-0.674,0.328-1.611-0.344-2.095C222.639,278.667,221.701,278.821,221.217,279.495z"/>
						<path style="fill:#FFFFFF;" d="M222.193,280.271c-0.387,0.046-0.705-0.098-0.875-0.363c0.029-0.158,0.092-0.312,0.191-0.451
							c0.357-0.497,1.041-0.619,1.549-0.283C223.063,279.69,222.746,280.204,222.193,280.271z"/>
						<path style="fill:#BCBEC0;" d="M222.252,280.743c0.707-0.185,1.156-0.794,1.207-1.473c0.545,0.508,0.643,1.353,0.197,1.974
							c-0.482,0.674-1.42,0.828-2.094,0.345c-0.41-0.293-0.627-0.756-0.625-1.225C221.24,280.706,221.717,280.882,222.252,280.743z"
							/>
					</g>
					<path style="fill:#FBB040;" d="M228.994,278.94c-0.373,0.52-0.254,1.245,0.268,1.619c0.521,0.373,1.246,0.255,1.619-0.267
						c0.375-0.521,0.256-1.247-0.266-1.621C230.094,278.298,229.369,278.417,228.994,278.94z"/>
				</g>
				<g>
					<path style="fill:#A7A9AC;" d="M193.795,272.269c8.049,3.924,13.963,5.586,16.293,6.149v9.45
						c-6.252-1.577-13.951-5.345-16.293-6.53V272.269 M192.469,270.123v12.025c0,0,11.074,5.838,18.945,7.377v-12.17
						C211.414,277.355,203.775,275.909,192.469,270.123L192.469,270.123z"/>
				</g>
				<g>
					<path style="fill:#BCBEC0;" d="M194.256,273.477v1.156c0,0,4.279,3.1,15.371,5.586v-1.156
						C209.627,279.063,201.498,277.405,194.256,273.477z"/>
					<path style="fill:#BCBEC0;" d="M194.256,275.489v1.156c0,0,4.568,3.025,15.371,5.585v-1.156
						C209.627,281.074,201.498,279.418,194.256,275.489z"/>
					<path style="fill:#BCBEC0;" d="M194.256,277.501v1.156c0,0,4.279,3.1,15.371,5.586v-1.156
						C209.627,283.087,201.498,281.431,194.256,277.501z"/>
					<path style="fill:#BCBEC0;" d="M194.256,279.514v1.156c0,0,4.973,3.016,15.371,5.585V285.1
						C209.627,285.1,201.498,283.442,194.256,279.514z"/>
				</g>
				<g>
					<path style="fill:#25282A;" d="M244.777,218.587l-13.637,3.816c0,0-8.703,1.849-8.631,13.58h4.549c0,0,0.248-7.417,6.67-8.698
						l9.223-1.415L244.777,218.587z"/>
					<polygon style="fill:#25282A;" points="227.932,250.874 219.947,248.695 219.947,233.595 227.932,235.773 					"/>
					<polygon style="fill:#030406;" points="227.932,235.773 228.777,235.29 228.777,249.621 227.932,250.874 					"/>
					<polygon style="fill:#3A3D40;" points="219.947,233.595 221.072,233.287 228.777,235.29 227.932,235.773 					"/>
				</g>
				<path style="fill:#0B0D10;" d="M260.621,276.847c0,0-3.109-17.129,10.225-24.226c0,0,12.705-8.321,14.939,8.582L260.621,276.847
					z"/>
				<path style="fill:#0B0D10;" d="M338.916,230.988c0,0-3.111-17.13,10.223-24.226c0,0,12.705-8.321,14.939,8.58L338.916,230.988z"
					/>
				<path style="fill:#0B0D10;" d="M366.715,214.285c0,0-3.109-17.13,10.225-24.226c0,0,12.705-8.322,14.94,8.58L366.715,214.285z"
					/>
				<g>
					<path style="fill:#25282A;" d="M227.219,187.077l24.689,9.411c0,0,9.047-10.498,29.385-17.642l-25.572-8.229
						C255.721,170.617,246.225,171.465,227.219,187.077z"/>
					<path d="M251.908,196.488l29.385-15.029v-2.612C281.293,178.847,259.955,186.192,251.908,196.488z"/>
				</g>
				<g>
					<path style="fill:#25282A;" d="M310.004,145.52l24.689,9.412c0,0,9.045-10.499,29.385-17.642l-25.572-8.229
						C338.506,129.062,329.01,129.909,310.004,145.52z"/>
					<path d="M334.693,154.933l29.385-15.029v-2.612C364.078,137.291,342.74,144.636,334.693,154.933z"/>
				</g>
				<path style="fill:#383B3E;" d="M358.912,114.95c0,0,3.66-2.991,7.473-1.489l32.756,14.354c0,0-0.615-0.179-3.248,1.247
					L358.912,114.95z"/>
				<path style="fill:#373A3D;" d="M283.07,271.91c-3.119,7.841-9.818,12.537-14.967,10.489c-5.148-2.047-6.793-10.063-3.674-17.904
					c3.119-7.841,9.818-12.537,14.967-10.489C284.545,256.054,286.189,264.07,283.07,271.91z"/>
				<g>
					<path style="fill:#0B0D10;" d="M278.623,270.5c-1.631,4.099-5.133,6.554-7.824,5.483s-3.553-5.262-1.922-9.359
						c1.631-4.1,5.133-6.555,7.824-5.483C279.393,262.211,280.254,266.401,278.623,270.5z"/>
					<path style="fill:#D1D3D4;" d="M278.332,269.604c-1.441,3.624-4.537,5.794-6.916,4.849c-2.381-0.946-3.141-4.651-1.699-8.275
						c1.441-3.623,4.539-5.793,6.918-4.847C279.014,262.277,279.773,265.982,278.332,269.604z"/>
					<path style="fill:#D1D3D4;" d="M278.332,269.604c-1.441,3.624-4.537,5.794-6.916,4.849c-2.381-0.946-3.141-4.651-1.699-8.275
						c1.441-3.623,4.539-5.793,6.918-4.847C279.014,262.277,279.773,265.982,278.332,269.604z"/>
					<path style="fill:#808285;" d="M276.783,268.821c-0.963,2.424-2.949,3.909-4.434,3.319c-1.484-0.591-1.908-3.035-0.943-5.457
						c0.963-2.424,2.949-3.909,4.434-3.319C277.324,263.956,277.748,266.398,276.783,268.821z"/>
					<g>
						<path style="fill:#D1D3D4;" d="M274.518,262.4c0,0.273-0.221,0.494-0.492,0.494c-0.273,0-0.494-0.221-0.494-0.494
							c0-0.271,0.221-0.492,0.494-0.492C274.297,261.908,274.518,262.129,274.518,262.4z"/>
						<path style="fill:#FFFFFF;" d="M274.109,262.422c0.094,0.086,0.207,0.108,0.303,0.069c0.021-0.048,0.035-0.101,0.035-0.156
							c0-0.201-0.16-0.365-0.359-0.373C273.988,262.1,273.975,262.298,274.109,262.422z"/>
						<path style="fill:#BCBEC0;" d="M274.002,262.535c-0.152-0.184-0.156-0.433-0.039-0.623c-0.244,0.03-0.432,0.237-0.432,0.488
							c0,0.273,0.221,0.494,0.494,0.494c0.164,0,0.311-0.082,0.4-0.208C274.279,262.721,274.119,262.676,274.002,262.535z"/>
					</g>
					<g>
						<path style="fill:#D1D3D4;" d="M276.85,262.236c0,0.272-0.221,0.494-0.494,0.494c-0.273,0-0.494-0.222-0.494-0.494
							c0-0.272,0.221-0.493,0.494-0.493C276.629,261.743,276.85,261.964,276.85,262.236z"/>
						<path style="fill:#FFFFFF;" d="M276.441,262.256c0.094,0.087,0.205,0.109,0.303,0.071c0.021-0.048,0.033-0.102,0.033-0.157
							c0-0.201-0.158-0.365-0.357-0.372C276.318,261.935,276.305,262.133,276.441,262.256z"/>
						<path style="fill:#BCBEC0;" d="M276.334,262.371c-0.154-0.184-0.156-0.434-0.041-0.624c-0.242,0.031-0.432,0.238-0.432,0.489
							c0,0.272,0.221,0.494,0.494,0.494c0.166,0,0.313-0.082,0.402-0.208C276.611,262.555,276.451,262.511,276.334,262.371z"/>
					</g>
					<g>
						<path style="fill:#D1D3D4;" d="M278.422,264.142c0,0.272-0.221,0.493-0.494,0.493c-0.272,0-0.494-0.221-0.494-0.493
							c0-0.272,0.223-0.493,0.494-0.493C278.201,263.648,278.422,263.869,278.422,264.142z"/>
						<path style="fill:#FFFFFF;" d="M278.012,264.161c0.094,0.087,0.207,0.109,0.303,0.07c0.023-0.047,0.037-0.1,0.037-0.156
							c0-0.201-0.16-0.365-0.361-0.372C277.891,263.839,277.877,264.038,278.012,264.161z"/>
						<path style="fill:#BCBEC0;" d="M277.906,264.277c-0.154-0.186-0.156-0.434-0.041-0.625c-0.242,0.03-0.432,0.237-0.432,0.489
							c0,0.272,0.223,0.493,0.494,0.493c0.166,0,0.313-0.082,0.402-0.207C278.184,264.461,278.022,264.416,277.906,264.277z"/>
					</g>
					<g>
						<path style="fill:#D1D3D4;" d="M278.678,267.03c0,0.272-0.223,0.493-0.494,0.493c-0.271,0-0.494-0.221-0.494-0.493
							c0-0.272,0.223-0.493,0.494-0.493C278.455,266.537,278.678,266.759,278.678,267.03z"/>
						<path style="fill:#FFFFFF;" d="M278.27,267.05c0.092,0.087,0.205,0.109,0.301,0.071c0.023-0.048,0.035-0.102,0.035-0.157
							c0-0.201-0.158-0.364-0.358-0.372C278.147,266.728,278.133,266.927,278.27,267.05z"/>
						<path style="fill:#BCBEC0;" d="M278.162,267.165c-0.154-0.185-0.156-0.434-0.041-0.624c-0.244,0.031-0.432,0.238-0.432,0.489
							c0,0.272,0.223,0.493,0.494,0.493c0.166,0,0.313-0.081,0.402-0.208C278.439,267.35,278.279,267.305,278.162,267.165z"/>
					</g>
					<g>
						<path style="fill:#D1D3D4;" d="M277.928,269.37c0,0.273-0.221,0.494-0.494,0.494c-0.271,0-0.492-0.222-0.492-0.494
							c0-0.272,0.221-0.492,0.492-0.492C277.707,268.878,277.928,269.098,277.928,269.37z"/>
						<path style="fill:#FFFFFF;" d="M277.52,269.391c0.094,0.087,0.205,0.109,0.303,0.071c0.021-0.049,0.035-0.102,0.035-0.158
							c0-0.201-0.16-0.364-0.359-0.371C277.398,269.068,277.385,269.267,277.52,269.391z"/>
						<path style="fill:#BCBEC0;" d="M277.412,269.506c-0.152-0.185-0.156-0.434-0.039-0.625c-0.244,0.031-0.432,0.239-0.432,0.489
							c0,0.273,0.221,0.494,0.492,0.494c0.166,0,0.313-0.082,0.402-0.208C277.689,269.69,277.529,269.646,277.412,269.506z"/>
					</g>
					<g>
						<path style="fill:#D1D3D4;" d="M276.691,271.611c0,0.272-0.221,0.493-0.494,0.493c-0.271,0-0.492-0.221-0.492-0.493
							c0-0.272,0.221-0.493,0.492-0.493C276.471,271.118,276.691,271.339,276.691,271.611z"/>
						<path style="fill:#FFFFFF;" d="M276.281,271.632c0.096,0.087,0.207,0.109,0.305,0.07c0.021-0.048,0.033-0.102,0.033-0.157
							c0-0.201-0.158-0.365-0.357-0.372C276.16,271.31,276.147,271.509,276.281,271.632z"/>
						<path style="fill:#BCBEC0;" d="M276.176,271.747c-0.154-0.185-0.156-0.434-0.041-0.625c-0.242,0.031-0.43,0.238-0.43,0.489
							c0,0.272,0.221,0.493,0.492,0.493c0.166,0,0.313-0.082,0.402-0.207C276.453,271.931,276.291,271.887,276.176,271.747z"/>
					</g>
					<g>
						<path style="fill:#D1D3D4;" d="M274.518,273.212c0,0.272-0.221,0.494-0.492,0.494c-0.273,0-0.494-0.222-0.494-0.494
							c0-0.271,0.221-0.493,0.494-0.493C274.297,272.719,274.518,272.94,274.518,273.212z"/>
						<path style="fill:#FFFFFF;" d="M274.109,273.233c0.094,0.086,0.207,0.108,0.303,0.07c0.021-0.048,0.035-0.102,0.035-0.157
							c0-0.201-0.16-0.364-0.359-0.372C273.988,272.909,273.975,273.108,274.109,273.233z"/>
						<path style="fill:#BCBEC0;" d="M274.002,273.347c-0.152-0.184-0.156-0.433-0.039-0.624c-0.244,0.031-0.432,0.238-0.432,0.489
							c0,0.272,0.221,0.494,0.494,0.494c0.164,0,0.311-0.082,0.4-0.208C274.279,273.531,274.119,273.486,274.002,273.347z"/>
					</g>
					<g>
						<path style="fill:#D1D3D4;" d="M272.301,273.377c0,0.272-0.221,0.493-0.492,0.493c-0.273,0-0.494-0.221-0.494-0.493
							c0-0.273,0.221-0.493,0.494-0.493C272.08,272.884,272.301,273.104,272.301,273.377z"/>
						<path style="fill:#FFFFFF;" d="M271.893,273.397c0.094,0.086,0.207,0.108,0.303,0.07c0.023-0.048,0.035-0.102,0.035-0.157
							c0-0.201-0.16-0.365-0.359-0.372C271.772,273.075,271.758,273.273,271.893,273.397z"/>
						<path style="fill:#BCBEC0;" d="M271.785,273.512c-0.152-0.184-0.156-0.433-0.039-0.624c-0.244,0.031-0.432,0.238-0.432,0.489
							c0,0.272,0.221,0.493,0.494,0.493c0.166,0,0.313-0.082,0.4-0.207C272.063,273.696,271.902,273.651,271.785,273.512z"/>
					</g>
					<g>
						<path style="fill:#D1D3D4;" d="M270.701,271.776c0,0.272-0.221,0.492-0.492,0.492c-0.274,0-0.494-0.22-0.494-0.492
							s0.221-0.493,0.494-0.493C270.48,271.283,270.701,271.504,270.701,271.776z"/>
						<path style="fill:#FFFFFF;" d="M270.293,271.796c0.094,0.087,0.207,0.109,0.303,0.071c0.021-0.048,0.035-0.102,0.035-0.158
							c0-0.2-0.16-0.364-0.359-0.371C270.17,271.474,270.158,271.673,270.293,271.796z"/>
						<path style="fill:#BCBEC0;" d="M270.185,271.911c-0.154-0.185-0.156-0.434-0.039-0.624c-0.244,0.03-0.432,0.237-0.432,0.489
							c0,0.272,0.221,0.492,0.494,0.492c0.166,0,0.313-0.081,0.4-0.207C270.463,272.096,270.303,272.051,270.185,271.911z"/>
					</g>
					<g>
						<path style="fill:#D1D3D4;" d="M270.279,269.099c0,0.273-0.223,0.494-0.494,0.494c-0.271,0-0.492-0.221-0.492-0.494
							c0-0.271,0.221-0.493,0.492-0.493C270.057,268.605,270.279,268.827,270.279,269.099z"/>
						<path style="fill:#FFFFFF;" d="M269.871,269.119c0.094,0.087,0.207,0.108,0.303,0.07c0.022-0.048,0.035-0.101,0.035-0.157
							c0-0.201-0.16-0.365-0.359-0.371C269.748,268.797,269.736,268.996,269.871,269.119z"/>
						<path style="fill:#BCBEC0;" d="M269.764,269.234c-0.152-0.185-0.156-0.434-0.041-0.624c-0.242,0.031-0.43,0.237-0.43,0.488
							c0,0.273,0.221,0.494,0.492,0.494c0.166,0,0.313-0.082,0.402-0.208C270.041,269.418,269.881,269.374,269.764,269.234z"/>
					</g>
					<g>
						<path style="fill:#D1D3D4;" d="M270.992,266.429c0,0.272-0.223,0.493-0.494,0.493c-0.271,0-0.494-0.221-0.494-0.493
							c0-0.272,0.223-0.494,0.494-0.494C270.77,265.935,270.992,266.156,270.992,266.429z"/>
						<path style="fill:#FFFFFF;" d="M270.582,266.448c0.094,0.087,0.207,0.109,0.303,0.07c0.023-0.048,0.035-0.101,0.035-0.157
							c0-0.201-0.16-0.364-0.357-0.371C270.461,266.127,270.447,266.325,270.582,266.448z"/>
						<path style="fill:#BCBEC0;" d="M270.477,266.564c-0.154-0.185-0.158-0.434-0.041-0.624c-0.244,0.03-0.432,0.238-0.432,0.489
							c0,0.272,0.223,0.493,0.494,0.493c0.166,0,0.313-0.082,0.402-0.207C270.754,266.747,270.592,266.703,270.477,266.564z"/>
					</g>
					<g>
						<path style="fill:#D1D3D4;" d="M272.348,264.033c0,0.272-0.221,0.492-0.494,0.492c-0.271,0-0.494-0.22-0.494-0.492
							c0-0.272,0.223-0.494,0.494-0.494C272.127,263.539,272.348,263.761,272.348,264.033z"/>
						<path style="fill:#FFFFFF;" d="M271.939,264.053c0.094,0.087,0.205,0.108,0.303,0.071c0.022-0.049,0.033-0.102,0.033-0.158
							c0-0.2-0.158-0.365-0.357-0.371C271.816,263.732,271.803,263.93,271.939,264.053z"/>
						<path style="fill:#BCBEC0;" d="M271.832,264.168c-0.154-0.185-0.156-0.434-0.041-0.624c-0.242,0.031-0.432,0.237-0.432,0.489
							c0,0.272,0.223,0.492,0.494,0.492c0.166,0,0.313-0.082,0.4-0.206C272.109,264.352,271.947,264.308,271.832,264.168z"/>
					</g>
					<path style="fill:#E6E7E8;" d="M276.02,268.518c-0.691,1.734-2.111,2.797-3.174,2.375c-1.063-0.423-1.365-2.172-0.676-3.906
						c0.691-1.734,2.111-2.797,3.174-2.375C276.406,265.034,276.709,266.784,276.02,268.518z"/>
				</g>
				<path style="fill:#373A3D;" d="M361.363,226.052c-3.119,7.84-9.82,12.536-14.969,10.488c-5.147-2.047-6.791-10.064-3.672-17.903
					c3.117-7.841,9.818-12.537,14.967-10.489C362.838,210.195,364.482,218.211,361.363,226.052z"/>
				<g>
					<path style="fill:#0B0D10;" d="M356.916,224.641c-1.631,4.1-5.135,6.554-7.826,5.483c-2.691-1.07-3.551-5.262-1.92-9.36
						c1.631-4.099,5.133-6.554,7.824-5.483C357.685,216.352,358.545,220.542,356.916,224.641z"/>
					<path style="fill:#D1D3D4;" d="M356.625,223.746c-1.441,3.623-4.539,5.794-6.916,4.847c-2.381-0.945-3.141-4.65-1.699-8.273
						c1.441-3.623,4.537-5.794,6.916-4.848C357.305,216.419,358.066,220.122,356.625,223.746z"/>
					<path style="fill:#D1D3D4;" d="M356.625,223.746c-1.441,3.623-4.539,5.794-6.916,4.847c-2.381-0.945-3.141-4.65-1.699-8.273
						c1.441-3.623,4.537-5.794,6.916-4.848C357.305,216.419,358.066,220.122,356.625,223.746z"/>
					<path style="fill:#808285;" d="M355.076,222.963c-0.963,2.423-2.949,3.908-4.434,3.317c-1.484-0.59-1.908-3.033-0.943-5.456
						c0.963-2.424,2.949-3.909,4.434-3.318C355.617,218.097,356.039,220.54,355.076,222.963z"/>
					<g>
						<path style="fill:#D1D3D4;" d="M352.81,216.542c0,0.272-0.221,0.492-0.494,0.492c-0.272,0-0.492-0.22-0.492-0.492
							c0-0.272,0.221-0.493,0.492-0.493C352.59,216.049,352.81,216.27,352.81,216.542z"/>
						<path style="fill:#FFFFFF;" d="M352.402,216.562c0.094,0.087,0.205,0.109,0.303,0.07c0.021-0.047,0.035-0.101,0.035-0.157
							c0-0.2-0.16-0.364-0.359-0.371C352.279,216.239,352.268,216.439,352.402,216.562z"/>
						<path style="fill:#BCBEC0;" d="M352.295,216.677c-0.154-0.185-0.156-0.434-0.041-0.624c-0.242,0.03-0.43,0.238-0.43,0.489
							c0,0.272,0.221,0.492,0.492,0.492c0.166,0,0.313-0.08,0.402-0.207C352.572,216.861,352.412,216.816,352.295,216.677z"/>
					</g>
					<g>
						<path style="fill:#D1D3D4;" d="M355.141,216.377c0,0.273-0.221,0.493-0.492,0.493c-0.272,0-0.492-0.22-0.492-0.493
							c0-0.272,0.221-0.493,0.492-0.493C354.92,215.884,355.141,216.105,355.141,216.377z"/>
						<path style="fill:#FFFFFF;" d="M354.732,216.398c0.094,0.087,0.207,0.108,0.303,0.07c0.023-0.048,0.035-0.101,0.035-0.157
							c0-0.201-0.16-0.364-0.357-0.372C354.611,216.075,354.598,216.273,354.732,216.398z"/>
						<path style="fill:#BCBEC0;" d="M354.627,216.513c-0.154-0.184-0.156-0.434-0.041-0.625c-0.244,0.031-0.43,0.238-0.43,0.489
							c0,0.273,0.221,0.493,0.492,0.493c0.166,0,0.313-0.082,0.4-0.208C354.904,216.696,354.742,216.651,354.627,216.513z"/>
					</g>
					<g>
						<path style="fill:#D1D3D4;" d="M356.715,218.282c0,0.272-0.223,0.494-0.494,0.494c-0.273,0-0.494-0.222-0.494-0.494
							c0-0.271,0.221-0.493,0.494-0.493C356.492,217.789,356.715,218.011,356.715,218.282z"/>
						<path style="fill:#FFFFFF;" d="M356.305,218.303c0.094,0.087,0.207,0.108,0.303,0.07c0.022-0.048,0.035-0.101,0.035-0.156
							c0-0.202-0.158-0.366-0.359-0.373C356.184,217.98,356.17,218.179,356.305,218.303z"/>
						<path style="fill:#BCBEC0;" d="M356.197,218.417c-0.152-0.184-0.156-0.433-0.039-0.624c-0.244,0.031-0.432,0.238-0.432,0.489
							c0,0.272,0.221,0.494,0.494,0.494c0.164,0,0.31-0.082,0.4-0.208C356.475,218.601,356.314,218.557,356.197,218.417z"/>
					</g>
					<g>
						<path style="fill:#D1D3D4;" d="M356.969,221.171c0,0.273-0.221,0.493-0.492,0.493c-0.273,0-0.494-0.22-0.494-0.493
							c0-0.272,0.221-0.492,0.494-0.492C356.748,220.679,356.969,220.898,356.969,221.171z"/>
						<path style="fill:#FFFFFF;" d="M356.56,221.191c0.094,0.087,0.207,0.109,0.303,0.07c0.023-0.048,0.035-0.101,0.035-0.157
							c0-0.201-0.158-0.365-0.359-0.372C356.439,220.869,356.426,221.067,356.56,221.191z"/>
						<path style="fill:#BCBEC0;" d="M356.455,221.306c-0.154-0.184-0.158-0.433-0.041-0.624c-0.244,0.031-0.432,0.238-0.432,0.489
							c0,0.273,0.221,0.493,0.494,0.493c0.166,0,0.313-0.081,0.4-0.207C356.73,221.49,356.57,221.446,356.455,221.306z"/>
					</g>
					<g>
						<path style="fill:#D1D3D4;" d="M356.221,223.512c0,0.272-0.221,0.493-0.494,0.493c-0.271,0-0.492-0.221-0.492-0.493
							c0-0.272,0.221-0.493,0.492-0.493C356,223.019,356.221,223.239,356.221,223.512z"/>
						<path style="fill:#FFFFFF;" d="M355.81,223.531c0.096,0.087,0.207,0.109,0.305,0.071c0.021-0.049,0.033-0.102,0.033-0.157
							c0-0.201-0.158-0.365-0.357-0.372C355.689,223.21,355.676,223.408,355.81,223.531z"/>
						<path style="fill:#BCBEC0;" d="M355.705,223.646c-0.154-0.185-0.156-0.434-0.041-0.624c-0.242,0.031-0.43,0.237-0.43,0.489
							c0,0.272,0.221,0.493,0.492,0.493c0.166,0,0.313-0.082,0.402-0.208C355.982,223.831,355.82,223.786,355.705,223.646z"/>
					</g>
					<g>
						<path style="fill:#D1D3D4;" d="M354.984,225.752c0,0.272-0.221,0.493-0.494,0.493c-0.273,0-0.492-0.221-0.492-0.493
							c0-0.271,0.219-0.493,0.492-0.493C354.764,225.259,354.984,225.48,354.984,225.752z"/>
						<path style="fill:#FFFFFF;" d="M354.574,225.773c0.094,0.087,0.207,0.108,0.303,0.07c0.023-0.047,0.037-0.102,0.037-0.157
							c0-0.201-0.16-0.364-0.361-0.371C354.453,225.45,354.439,225.648,354.574,225.773z"/>
						<path style="fill:#BCBEC0;" d="M354.467,225.888c-0.152-0.186-0.156-0.434-0.039-0.624c-0.242,0.03-0.43,0.237-0.43,0.488
							c0,0.272,0.219,0.493,0.492,0.493c0.166,0,0.313-0.081,0.402-0.207C354.746,226.071,354.584,226.027,354.467,225.888z"/>
					</g>
					<g>
						<path style="fill:#D1D3D4;" d="M352.81,227.353c0,0.272-0.221,0.493-0.494,0.493c-0.272,0-0.492-0.221-0.492-0.493
							c0-0.273,0.221-0.492,0.492-0.492C352.59,226.86,352.81,227.08,352.81,227.353z"/>
						<path style="fill:#FFFFFF;" d="M352.402,227.373c0.094,0.086,0.205,0.109,0.303,0.071c0.021-0.048,0.035-0.102,0.035-0.158
							c0-0.201-0.16-0.365-0.359-0.371C352.279,227.051,352.268,227.249,352.402,227.373z"/>
						<path style="fill:#BCBEC0;" d="M352.295,227.488c-0.154-0.185-0.156-0.434-0.041-0.624c-0.242,0.03-0.43,0.237-0.43,0.488
							c0,0.272,0.221,0.493,0.492,0.493c0.166,0,0.313-0.081,0.402-0.207C352.572,227.673,352.412,227.628,352.295,227.488z"/>
					</g>
					<g>
						<path style="fill:#D1D3D4;" d="M350.594,227.518c0,0.273-0.221,0.493-0.494,0.493c-0.272,0-0.492-0.22-0.492-0.493
							c0-0.272,0.221-0.493,0.492-0.493C350.373,227.024,350.594,227.245,350.594,227.518z"/>
						<path style="fill:#FFFFFF;" d="M350.184,227.538c0.096,0.086,0.207,0.108,0.305,0.07c0.021-0.048,0.035-0.101,0.035-0.157
							c0-0.201-0.16-0.364-0.359-0.372C350.063,227.216,350.049,227.415,350.184,227.538z"/>
						<path style="fill:#BCBEC0;" d="M350.078,227.653c-0.152-0.185-0.156-0.434-0.039-0.625c-0.244,0.031-0.432,0.238-0.432,0.489
							c0,0.273,0.221,0.493,0.492,0.493c0.166,0,0.313-0.082,0.402-0.207C350.355,227.837,350.193,227.792,350.078,227.653z"/>
					</g>
					<g>
						<path style="fill:#D1D3D4;" d="M348.994,225.917c0,0.272-0.223,0.493-0.494,0.493s-0.492-0.221-0.492-0.493
							c0-0.272,0.221-0.493,0.492-0.493S348.994,225.645,348.994,225.917z"/>
						<path style="fill:#FFFFFF;" d="M348.584,225.937c0.096,0.087,0.207,0.109,0.303,0.071c0.023-0.048,0.037-0.102,0.037-0.157
							c0-0.201-0.16-0.365-0.359-0.372C348.463,225.615,348.451,225.814,348.584,225.937z"/>
						<path style="fill:#BCBEC0;" d="M348.478,226.052c-0.152-0.184-0.156-0.433-0.041-0.624c-0.242,0.031-0.43,0.238-0.43,0.489
							c0,0.272,0.221,0.493,0.492,0.493c0.166,0,0.313-0.082,0.402-0.207C348.756,226.236,348.596,226.191,348.478,226.052z"/>
					</g>
					<g>
						<path style="fill:#D1D3D4;" d="M348.572,223.24c0,0.272-0.221,0.493-0.494,0.493c-0.271,0-0.494-0.221-0.494-0.493
							c0-0.272,0.223-0.493,0.494-0.493C348.352,222.747,348.572,222.968,348.572,223.24z"/>
						<path style="fill:#FFFFFF;" d="M348.162,223.26c0.094,0.087,0.207,0.109,0.305,0.071c0.022-0.049,0.033-0.102,0.033-0.158
							c0-0.2-0.158-0.364-0.359-0.371C348.041,222.939,348.027,223.137,348.162,223.26z"/>
						<path style="fill:#BCBEC0;" d="M348.057,223.375c-0.154-0.184-0.156-0.434-0.041-0.624c-0.242,0.031-0.432,0.237-0.432,0.489
							c0,0.272,0.223,0.493,0.494,0.493c0.166,0,0.313-0.082,0.402-0.207C348.334,223.56,348.172,223.515,348.057,223.375z"/>
					</g>
					<g>
						<path style="fill:#D1D3D4;" d="M349.283,220.569c0,0.272-0.221,0.493-0.492,0.493c-0.273,0-0.494-0.221-0.494-0.493
							c0-0.272,0.221-0.494,0.494-0.494C349.063,220.075,349.283,220.297,349.283,220.569z"/>
						<path style="fill:#FFFFFF;" d="M348.875,220.589c0.094,0.087,0.207,0.109,0.303,0.071c0.021-0.049,0.035-0.102,0.035-0.157
							c0-0.202-0.16-0.365-0.359-0.372C348.754,220.267,348.74,220.466,348.875,220.589z"/>
						<path style="fill:#BCBEC0;" d="M348.77,220.704c-0.154-0.184-0.158-0.434-0.041-0.624c-0.244,0.031-0.432,0.238-0.432,0.489
							c0,0.272,0.221,0.493,0.494,0.493c0.166,0,0.311-0.082,0.402-0.208C349.045,220.889,348.885,220.844,348.77,220.704z"/>
					</g>
					<g>
						<path style="fill:#D1D3D4;" d="M350.639,218.174c0,0.272-0.221,0.493-0.492,0.493c-0.274,0-0.494-0.221-0.494-0.493
							c0-0.273,0.221-0.493,0.494-0.493C350.418,217.681,350.639,217.901,350.639,218.174z"/>
						<path style="fill:#FFFFFF;" d="M350.23,218.194c0.096,0.086,0.207,0.108,0.305,0.07c0.02-0.048,0.033-0.102,0.033-0.157
							c0-0.202-0.16-0.365-0.357-0.372C350.109,217.872,350.096,218.071,350.23,218.194z"/>
						<path style="fill:#BCBEC0;" d="M350.125,218.309c-0.154-0.184-0.158-0.434-0.041-0.624c-0.242,0.031-0.432,0.238-0.432,0.489
							c0,0.272,0.221,0.493,0.494,0.493c0.166,0,0.313-0.082,0.4-0.208C350.4,218.493,350.24,218.448,350.125,218.309z"/>
					</g>
					<path style="fill:#E6E7E8;" d="M354.313,222.659c-0.69,1.734-2.111,2.797-3.174,2.374c-1.063-0.423-1.365-2.171-0.676-3.905
						c0.691-1.734,2.111-2.798,3.174-2.375C354.699,219.176,355.002,220.925,354.313,222.659z"/>
				</g>
				<path style="fill:#373A3D;" d="M389.164,209.348c-3.119,7.841-9.82,12.536-14.969,10.489
					c-5.147-2.048-6.791-10.064-3.674-17.904c3.119-7.841,9.82-12.537,14.969-10.488
					C390.639,193.491,392.283,201.507,389.164,209.348z"/>
				<g>
					<path style="fill:#0B0D10;" d="M384.717,207.937c-1.631,4.1-5.135,6.555-7.824,5.484c-2.693-1.071-3.553-5.262-1.922-9.359
						c1.631-4.101,5.133-6.555,7.824-5.484C385.486,199.648,386.346,203.838,384.717,207.937z"/>
					<path style="fill:#D1D3D4;" d="M384.426,207.043c-1.441,3.623-4.539,5.793-6.918,4.847c-2.379-0.946-3.139-4.65-1.697-8.273
						c1.441-3.624,4.537-5.794,6.916-4.848C385.105,199.715,385.867,203.419,384.426,207.043z"/>
					<path style="fill:#D1D3D4;" d="M384.426,207.043c-1.441,3.623-4.539,5.793-6.918,4.847c-2.379-0.946-3.139-4.65-1.697-8.273
						c1.441-3.624,4.537-5.794,6.916-4.848C385.105,199.715,385.867,203.419,384.426,207.043z"/>
					<path style="fill:#808285;" d="M382.877,206.259c-0.963,2.424-2.949,3.909-4.434,3.318c-1.484-0.591-1.908-3.034-0.943-5.457
						c0.963-2.424,2.949-3.909,4.434-3.317C383.42,201.393,383.84,203.836,382.877,206.259z"/>
					<g>
						<path style="fill:#D1D3D4;" d="M380.611,199.839c0,0.271-0.221,0.492-0.494,0.492c-0.271,0-0.492-0.221-0.492-0.492
							c0-0.272,0.221-0.494,0.492-0.494C380.391,199.345,380.611,199.566,380.611,199.839z"/>
						<path style="fill:#FFFFFF;" d="M380.201,199.858c0.096,0.087,0.209,0.108,0.305,0.07c0.021-0.048,0.035-0.102,0.035-0.157
							c0-0.201-0.16-0.365-0.359-0.371C380.08,199.536,380.068,199.734,380.201,199.858z"/>
						<path style="fill:#BCBEC0;" d="M380.096,199.974c-0.154-0.186-0.156-0.434-0.039-0.624c-0.244,0.03-0.432,0.237-0.432,0.489
							c0,0.271,0.221,0.492,0.492,0.492c0.166,0,0.314-0.081,0.402-0.207C380.373,200.157,380.211,200.113,380.096,199.974z"/>
					</g>
					<g>
						<path style="fill:#D1D3D4;" d="M382.941,199.674c0,0.272-0.221,0.493-0.492,0.493c-0.273,0-0.494-0.221-0.494-0.493
							c0-0.273,0.221-0.493,0.494-0.493C382.721,199.181,382.941,199.401,382.941,199.674z"/>
						<path style="fill:#FFFFFF;" d="M382.533,199.694c0.096,0.086,0.207,0.108,0.303,0.07c0.023-0.049,0.035-0.102,0.035-0.157
							c0-0.201-0.16-0.365-0.359-0.372C382.412,199.372,382.398,199.569,382.533,199.694z"/>
						<path style="fill:#BCBEC0;" d="M382.428,199.809c-0.154-0.184-0.158-0.434-0.041-0.624c-0.242,0.03-0.432,0.237-0.432,0.489
							c0,0.272,0.221,0.493,0.494,0.493c0.166,0,0.313-0.082,0.402-0.209C382.703,199.993,382.543,199.948,382.428,199.809z"/>
					</g>
					<g>
						<path style="fill:#D1D3D4;" d="M384.516,201.579c0,0.271-0.223,0.493-0.494,0.493c-0.274,0-0.494-0.222-0.494-0.493
							s0.221-0.494,0.494-0.494C384.293,201.085,384.516,201.308,384.516,201.579z"/>
						<path style="fill:#FFFFFF;" d="M384.105,201.599c0.094,0.087,0.207,0.109,0.303,0.071c0.023-0.048,0.035-0.103,0.035-0.157
							c0-0.202-0.16-0.365-0.359-0.372C383.984,201.277,383.971,201.476,384.105,201.599z"/>
						<path style="fill:#BCBEC0;" d="M384,201.714c-0.154-0.184-0.158-0.434-0.041-0.624c-0.244,0.031-0.432,0.238-0.432,0.489
							c0,0.271,0.221,0.493,0.494,0.493c0.166,0,0.313-0.082,0.402-0.208C384.275,201.898,384.115,201.854,384,201.714z"/>
					</g>
					<g>
						<path style="fill:#D1D3D4;" d="M384.77,204.468c0,0.272-0.221,0.493-0.492,0.493c-0.273,0-0.494-0.221-0.494-0.493
							c0-0.273,0.221-0.493,0.494-0.493C384.549,203.975,384.77,204.195,384.77,204.468z"/>
						<path style="fill:#FFFFFF;" d="M384.361,204.487c0.094,0.088,0.207,0.109,0.303,0.071c0.023-0.048,0.035-0.101,0.035-0.157
							c0-0.201-0.16-0.365-0.359-0.372C384.24,204.166,384.227,204.364,384.361,204.487z"/>
						<path style="fill:#BCBEC0;" d="M384.256,204.603c-0.154-0.185-0.158-0.434-0.041-0.624c-0.244,0.03-0.432,0.237-0.432,0.489
							c0,0.272,0.221,0.493,0.494,0.493c0.166,0,0.311-0.082,0.402-0.208C384.533,204.787,384.371,204.742,384.256,204.603z"/>
					</g>
					<g>
						<path style="fill:#D1D3D4;" d="M384.022,206.809c0,0.273-0.221,0.492-0.494,0.492c-0.271,0-0.492-0.22-0.492-0.492
							c0-0.272,0.221-0.494,0.492-0.494C383.801,206.314,384.022,206.536,384.022,206.809z"/>
						<path style="fill:#FFFFFF;" d="M383.611,206.828c0.096,0.087,0.207,0.108,0.305,0.07c0.022-0.048,0.033-0.101,0.033-0.157
							c0-0.2-0.158-0.365-0.359-0.372C383.492,206.507,383.477,206.705,383.611,206.828z"/>
						<path style="fill:#BCBEC0;" d="M383.506,206.943c-0.154-0.185-0.156-0.434-0.041-0.624c-0.242,0.03-0.43,0.237-0.43,0.489
							c0,0.273,0.221,0.492,0.492,0.492c0.166,0,0.313-0.082,0.402-0.207C383.783,207.127,383.621,207.083,383.506,206.943z"/>
					</g>
					<g>
						<path style="fill:#D1D3D4;" d="M382.783,209.048c0,0.273-0.221,0.494-0.492,0.494c-0.273,0-0.494-0.221-0.494-0.494
							c0-0.271,0.221-0.492,0.494-0.492C382.563,208.556,382.783,208.776,382.783,209.048z"/>
						<path style="fill:#FFFFFF;" d="M382.375,209.069c0.094,0.086,0.207,0.108,0.303,0.07c0.023-0.048,0.035-0.102,0.035-0.157
							c0-0.202-0.158-0.366-0.359-0.372C382.254,208.747,382.24,208.944,382.375,209.069z"/>
						<path style="fill:#BCBEC0;" d="M382.27,209.184c-0.154-0.184-0.158-0.433-0.041-0.624c-0.242,0.031-0.432,0.237-0.432,0.488
							c0,0.273,0.221,0.494,0.494,0.494c0.166,0,0.313-0.082,0.4-0.208C382.547,209.367,382.385,209.323,382.27,209.184z"/>
					</g>
					<g>
						<path style="fill:#D1D3D4;" d="M380.611,210.649c0,0.273-0.221,0.492-0.494,0.492c-0.271,0-0.492-0.22-0.492-0.492
							c0-0.272,0.221-0.493,0.492-0.493C380.391,210.156,380.611,210.377,380.611,210.649z"/>
						<path style="fill:#FFFFFF;" d="M380.201,210.669c0.096,0.087,0.209,0.109,0.305,0.071c0.021-0.048,0.035-0.102,0.035-0.157
							c0-0.201-0.16-0.365-0.359-0.372C380.08,210.348,380.068,210.546,380.201,210.669z"/>
						<path style="fill:#BCBEC0;" d="M380.096,210.784c-0.154-0.185-0.156-0.434-0.039-0.624c-0.244,0.031-0.432,0.238-0.432,0.489
							c0,0.273,0.221,0.492,0.492,0.492c0.166,0,0.314-0.082,0.402-0.206C380.373,210.969,380.211,210.924,380.096,210.784z"/>
					</g>
					<g>
						<path style="fill:#D1D3D4;" d="M378.395,210.814c0,0.273-0.221,0.494-0.492,0.494c-0.273,0-0.494-0.221-0.494-0.494
							c0-0.271,0.221-0.492,0.494-0.492C378.174,210.321,378.395,210.542,378.395,210.814z"/>
						<path style="fill:#FFFFFF;" d="M377.986,210.834c0.094,0.087,0.207,0.109,0.303,0.071c0.021-0.049,0.035-0.102,0.035-0.157
							c0-0.201-0.16-0.365-0.359-0.372C377.863,210.513,377.852,210.711,377.986,210.834z"/>
						<path style="fill:#BCBEC0;" d="M377.879,210.949c-0.152-0.185-0.156-0.433-0.039-0.624c-0.244,0.03-0.432,0.237-0.432,0.488
							c0,0.273,0.221,0.494,0.494,0.494c0.164,0,0.311-0.082,0.4-0.208C378.156,211.134,377.996,211.089,377.879,210.949z"/>
					</g>
					<g>
						<path style="fill:#D1D3D4;" d="M376.795,209.213c0,0.272-0.223,0.494-0.494,0.494c-0.272,0-0.492-0.222-0.492-0.494
							c0-0.271,0.221-0.493,0.492-0.493C376.572,208.72,376.795,208.941,376.795,209.213z"/>
						<path style="fill:#FFFFFF;" d="M376.387,209.233c0.094,0.086,0.207,0.108,0.301,0.07c0.023-0.047,0.035-0.1,0.035-0.156
							c0-0.202-0.158-0.365-0.357-0.373C376.264,208.912,376.25,209.11,376.387,209.233z"/>
						<path style="fill:#BCBEC0;" d="M376.279,209.349c-0.154-0.185-0.156-0.434-0.039-0.624c-0.244,0.03-0.432,0.237-0.432,0.488
							c0,0.272,0.221,0.494,0.492,0.494c0.166,0,0.313-0.082,0.402-0.208C376.557,209.532,376.395,209.488,376.279,209.349z"/>
					</g>
					<g>
						<path style="fill:#D1D3D4;" d="M376.373,206.536c0,0.272-0.223,0.493-0.494,0.493c-0.273,0-0.492-0.221-0.492-0.493
							c0-0.272,0.219-0.493,0.492-0.493C376.15,206.043,376.373,206.264,376.373,206.536z"/>
						<path style="fill:#FFFFFF;" d="M375.963,206.557c0.094,0.087,0.207,0.108,0.303,0.07c0.023-0.048,0.035-0.101,0.035-0.157
							c0-0.201-0.158-0.365-0.357-0.372C375.842,206.234,375.828,206.433,375.963,206.557z"/>
						<path style="fill:#BCBEC0;" d="M375.857,206.672c-0.154-0.186-0.158-0.434-0.041-0.625c-0.242,0.03-0.43,0.238-0.43,0.489
							c0,0.272,0.219,0.493,0.492,0.493c0.166,0,0.313-0.082,0.402-0.207C376.135,206.855,375.973,206.812,375.857,206.672z"/>
					</g>
					<g>
						<path style="fill:#D1D3D4;" d="M377.084,203.866c0,0.271-0.221,0.493-0.492,0.493c-0.273,0-0.494-0.222-0.494-0.493
							c0-0.273,0.221-0.494,0.494-0.494C376.863,203.372,377.084,203.593,377.084,203.866z"/>
						<path style="fill:#FFFFFF;" d="M376.676,203.886c0.094,0.086,0.207,0.108,0.303,0.07c0.022-0.048,0.035-0.102,0.035-0.157
							c0-0.201-0.16-0.365-0.359-0.372C376.555,203.564,376.541,203.763,376.676,203.886z"/>
						<path style="fill:#BCBEC0;" d="M376.568,204c-0.152-0.184-0.156-0.433-0.039-0.624c-0.244,0.031-0.432,0.238-0.432,0.49
							c0,0.271,0.221,0.493,0.494,0.493c0.166,0,0.311-0.082,0.4-0.208C376.846,204.185,376.685,204.14,376.568,204z"/>
					</g>
					<g>
						<path style="fill:#D1D3D4;" d="M378.439,201.47c0,0.272-0.219,0.494-0.492,0.494c-0.271,0-0.494-0.222-0.494-0.494
							c0-0.273,0.223-0.492,0.494-0.492C378.221,200.978,378.439,201.197,378.439,201.47z"/>
						<path style="fill:#FFFFFF;" d="M378.031,201.49c0.094,0.086,0.207,0.108,0.303,0.07c0.023-0.048,0.035-0.101,0.035-0.157
							c0-0.201-0.158-0.364-0.359-0.372C377.91,201.168,377.897,201.367,378.031,201.49z"/>
						<path style="fill:#BCBEC0;" d="M377.924,201.605c-0.152-0.184-0.156-0.433-0.039-0.623c-0.242,0.03-0.432,0.237-0.432,0.488
							c0,0.272,0.223,0.494,0.494,0.494c0.166,0,0.313-0.082,0.4-0.209C378.203,201.79,378.041,201.744,377.924,201.605z"/>
					</g>
					<path style="fill:#E6E7E8;" d="M382.113,205.955c-0.691,1.734-2.111,2.798-3.174,2.375c-1.064-0.424-1.365-2.172-0.676-3.906
						c0.689-1.733,2.111-2.797,3.174-2.374C382.5,202.472,382.803,204.221,382.113,205.955z"/>
				</g>
				<path style="fill:#25282A;" d="M250.371,213.671l143.275-77.261c0,0,5.699-1.763,5.494,6.168v21.013l-158.238,90.876
					l2.295-26.621C243.197,227.846,242.957,216.377,250.371,213.671z"/>
				<path style="fill:#7AD0E2;" d="M251.973,215.515l139.322-74.62c0,0,4.621-1.43,4.455,5.004v17.045l-151.457,85.663l1.861-21.594
					C246.154,227.013,245.961,217.71,251.973,215.515z"/>
				<polygon style="fill:#25282A;" points="275.619,232.66 273.232,233.781 273.232,203.427 275.619,201.806 				"/>
				<polygon style="fill:#25282A;" points="349.898,190.441 347.512,191.903 347.512,162.295 349.898,161.452 				"/>
				<polygon style="fill:#25282A;" points="374.67,176.537 372.283,178 372.283,148.391 374.67,147.549 				"/>
				<path style="fill:#7AD0E2;" d="M391.295,140.895l-0.281,0.15c1.41,18.875-10.402,23.039-10.402,23.039l-115.623,66.904
					c-12.69,3.732-15.027-5.861-14.774-14.513c-4.209,3.167-4.061,10.537-4.061,10.537l-1.861,21.594l151.457-85.663v-17.045
					C395.916,139.465,391.295,140.895,391.295,140.895z"/>
				<polygon style="fill:#25282A;" points="300.797,187.031 327.322,172.176 327.322,237.02 300.797,252.621 				"/>
				<polygon style="fill:#008CB8;" points="302.164,188.421 325.957,175.185 325.957,236.056 302.164,249.618 				"/>
				<g>
					<polygon style="fill:#7AD0E2;" points="313.26,185.024 304.555,190.019 304.555,245.694 313.26,240.696 					"/>
					<polygon style="fill:#7AD0E2;" points="315.414,183.789 315.414,239.459 324.031,234.514 324.031,178.847 					"/>
				</g>
				<path style="fill:#7AD0E2;" d="M306.609,188.839l-2.055,1.18v55.676l8.705-4.998v-3.584
					C305.102,239.242,306.08,201.2,306.609,188.839z"/>
				<path style="fill:#7AD0E2;" d="M318.135,182.229l-2.721,1.561v55.67l8.617-4.945v-1.624
					C316.004,232.875,317.705,190.804,318.135,182.229z"/>
			</g>
		</g>
	</g>
</g>
</svg>
